<?xml version="1.0" encoding="UTF-8" standalone="no"?>
<!-- Created with Inkscape (http://www.inkscape.org/) -->

<svg
   xmlns:dc="http://purl.org/dc/elements/1.1/"
   xmlns:cc="http://creativecommons.org/ns#"
   xmlns:rdf="http://www.w3.org/1999/02/22-rdf-syntax-ns#"
   xmlns:svg="http://www.w3.org/2000/svg"
   xmlns="http://www.w3.org/2000/svg"
   xmlns:sodipodi="http://sodipodi.sourceforge.net/DTD/sodipodi-0.dtd"
   xmlns:inkscape="http://www.inkscape.org/namespaces/inkscape"
   width="40"
   height="40"
   id="svg3351"
   version="1.1"
   inkscape:version="0.48.2 r9819"
   sodipodi:docname="automation-icon.svg">
  <defs
     id="defs3353" />
  <sodipodi:namedview
     id="base"
     pagecolor="#ffffff"
     bordercolor="#666666"
     borderopacity="1.0"
     inkscape:pageopacity="0.0"
     inkscape:pageshadow="2"
     inkscape:zoom="0.49497475"
     inkscape:cx="531.55922"
     inkscape:cy="446.82116"
     inkscape:document-units="px"
     inkscape:current-layer="layer1"
     showgrid="true"
     inkscape:window-width="1600"
     inkscape:window-height="838"
     inkscape:window-x="-8"
     inkscape:window-y="-8"
     inkscape:window-maximized="1"
     showguides="true"
     inkscape:guide-bbox="true">
    <inkscape:grid
       type="xygrid"
       id="grid3386"
       empspacing="5"
       visible="true"
       enabled="true"
       snapvisiblegridlinesonly="true" />
  </sodipodi:namedview>
  <metadata
     id="metadata3356">
    <rdf:RDF>
      <cc:Work
         rdf:about="">
        <dc:format>image/svg+xml</dc:format>
        <dc:type
           rdf:resource="http://purl.org/dc/dcmitype/StillImage" />
        <dc:title />
      </cc:Work>
    </rdf:RDF>
  </metadata>
  <g
     inkscape:label="Ebene 1"
     inkscape:groupmode="layer"
     id="layer1"
     transform="translate(0,-1012.3622)">
    <flowRoot
       xml:space="preserve"
       id="flowRoot3881"
       style="font-size:40px;font-style:normal;font-weight:normal;line-height:125%;letter-spacing:0px;word-spacing:0px;fill:#000000;fill-opacity:1;stroke:none;font-family:Sans"><flowRegion
         id="flowRegion3883"><rect
           id="rect3885"
           width="722.85712"
           height="257.14285"
           x="522.85712"
           y="682.85712" /></flowRegion><flowPara
         id="flowPara3887" /></flowRoot>    <path
       sodipodi:type="arc"
       style="fill:#a00000;fill-opacity:1;fill-rule:evenodd;stroke:none"
       id="path3822"
       sodipodi:cx="21.5"
       sodipodi:cy="24.5"
       sodipodi:rx="13.5"
       sodipodi:ry="13.5"
       d="M 35,24.5 C 35,31.955844 28.955844,38 21.5,38 14.044156,38 8,31.955844 8,24.5 8,17.044156 14.044156,11 21.5,11 28.955844,11 35,17.044156 35,24.5 z"
       transform="matrix(1.4814815,0,0,1.4814815,-11.851856,996.06588)"
       inkscape:export-filename="C:\Users\Hanne Nobis\Dropbox\icons\icon-automation-32.png"
       inkscape:export-xdpi="90"
       inkscape:export-ydpi="90" />
    <g
       transform="matrix(0.14322921,0,0,0.14322921,1.7203971,825.37848)"
       id="g4848"
       inkscape:export-filename="C:\Users\Hanne Nobis\Dropbox\icons\icon-automation-32.png"
       inkscape:export-xdpi="90"
       inkscape:export-ydpi="90">
      <path
         inkscape:connector-curvature="0"
         style="fill:#ffffff;fill-opacity:1;stroke:none"
         d="m 128,544.03125 c -30.927946,0 -56,25.0721 -56,56 0,6.7201 1.204712,13.1549 3.375,19.125 1.876308,0.1065 3.735345,0.25895 5.5625,0.53125 C 78.405114,613.6347 77,607.00295 77,600.03125 c 0,-28.1665 22.833477,-51 51,-51 28.16652,0 51,22.8335 51,51 0,6.9676 -1.37664,13.60625 -3.90625,19.65625 1.8281,-0.2678 3.68547,-0.42935 5.5625,-0.53125 2.16811,-5.9675 3.34375,-12.4084 3.34375,-19.125 0,-30.9279 -25.07206,-56 -56,-56 z m -0.125,8.84375 c -0.62231,0.062 -1.14368,0.65605 -1.125,1.28125 l 0,3.625 c 0.38399,-0.1195 0.78538,-0.1829 1.1875,-0.1875 0.44376,-0.01 0.88875,0.055 1.3125,0.1875 l 0,-3.625 c 0.0166,-0.6648 -0.58497,-1.28135 -1.25,-1.28125 l -0.125,0 z m -23,6.15625 c -0.8128,0.1114 -1.32392,1.1689 -0.90625,1.875 l 5.25,9.09375 c 0.32717,0.5729 1.14599,0.79605 1.71875,0.46875 0.57276,-0.3273 0.79616,-1.14605 0.46875,-1.71875 l -5.25,-9.09375 c -0.24695,-0.4413 -0.7815,-0.702 -1.28125,-0.625 z m 45.96875,0 c -0.40841,0.028 -0.79624,0.27 -1,0.625 l -5.25,9.09375 c -0.32741,0.5727 -0.10401,1.39145 0.46875,1.71875 0.57276,0.3273 1.39158,0.10415 1.71875,-0.46875 l 5.25,-9.09375 c 0.45839,-0.7865 -0.28055,-1.9532 -1.1875,-1.875 z m -22.90625,0.9375 c -1.96352,0.033 -3.7203,1.849 -3.6875,3.8125 l 0,35.09375 c 0,3.3825 1.52523,4.90625 4.375,4.90625 l 27.59375,0 c 1.98117,0.028 3.8125,-1.7686 3.8125,-3.75 0,-1.9814 -1.83133,-3.778 -3.8125,-3.75 l -24.46875,0 0,-32.5 c 0.0335,-2.0052 -1.80732,-3.846 -3.8125,-3.8125 z m -39.75,15.84375 c -0.537219,0.03 -1.037302,0.44395 -1.15625,0.96875 -0.118947,0.5248 0.153417,1.1159 0.625,1.375 l 9.09375,5.25 c 0.565685,0.391 1.436371,0.18865 1.78125,-0.40625 C 98.87613,582.4051 98.6204,581.5466 98,581.25 L 88.90625,576 c -0.213419,-0.1328 -0.467625,-0.1991 -0.71875,-0.1875 z m 79.46875,0 c -0.19887,0.016 -0.39356,0.081 -0.5625,0.1875 L 158,581.25 c -0.6204,0.2966 -0.87612,1.1551 -0.53125,1.75 0.34488,0.5949 1.21557,0.79725 1.78125,0.40625 l 9.09375,-5.25 c 0.4955,-0.2711 0.75274,-0.8955 0.59375,-1.4375 -0.15898,-0.542 -0.7178,-0.94575 -1.28125,-0.90625 z M 81.875,598.78125 c -0.654631,0.065 -1.190461,0.7204 -1.125,1.375 0.06546,0.6546 0.720405,1.1906 1.375,1.125 l 10.5,0 c 0.660391,0.01 1.28125,-0.5896 1.28125,-1.25 0,-0.6605 -0.620859,-1.2594 -1.28125,-1.25 l -10.5,0 c -0.08305,-0.01 -0.166946,-0.01 -0.25,0 z m 81.25,0 c -0.23222,0.042 -0.45173,0.1522 -0.625,0.3125 0.13817,0.6148 0.13817,1.2602 0,1.875 0.23786,0.21 0.55792,0.3243 0.875,0.3125 l 10.5,0 c 0.66039,0.01 1.28125,-0.5896 1.28125,-1.25 0,-0.6605 -0.62086,-1.2594 -1.28125,-1.25 l -10.5,0 -0.125,0 -0.125,0 z M 97.3125,616.4375 c -0.198868,0.016 -0.393561,0.081 -0.5625,0.1875 l -8.1875,4.71875 c 1.088999,0.3092 2.155482,0.66405 3.21875,1.03125 L 98,618.78125 c 0.495503,-0.2711 0.752735,-0.8955 0.59375,-1.4375 -0.158984,-0.542 -0.717803,-0.94575 -1.28125,-0.90625 z m 61.21875,0 c -0.53722,0.03 -1.0373,0.44395 -1.15625,0.96875 -0.11895,0.5248 0.15342,1.1159 0.625,1.375 l 6.15625,3.5625 c 1.06539,-0.3667 2.15884,-0.6917 3.25,-1 L 159.25,616.625 c -0.21342,-0.1328 -0.46762,-0.1991 -0.71875,-0.1875 z m -48.3125,12.9375 c -0.41433,0.034 -0.8039,0.28965 -1,0.65625 L 108.5,631.25 c 0.68004,0.5113 1.34245,1.05515 2,1.59375 l 0.90625,-1.5625 c 0.49291,-0.7886 -0.26242,-2.00105 -1.1875,-1.90625 z m 35.40625,0 c -0.87382,0.023 -1.49032,1.16235 -1.03125,1.90625 l 0.875,1.5 c 0.65337,-0.5337 1.3245,-1.0558 2,-1.5625 l -0.6875,-1.1875 c -0.22151,-0.4114 -0.68945,-0.67695 -1.15625,-0.65625 z m -18.53125,4.75 A 1.250125,1.250125 0 0 0 126,635.375 l 0,10.53125 a 1.250125,1.250125 0 1 0 2.5,0 l 0,-10.53125 a 1.250125,1.250125 0 0 0 -1.40625,-1.25 z M 125.5,650.96875 c 0.88805,1.6347 1.69873,3.31075 2.4375,5.03125 0.73996,-1.7248 1.54741,-3.39275 2.4375,-5.03125 -0.7875,0.036 -1.57858,0.0625 -2.375,0.0625 -0.83831,0 -1.6716,-0.0235 -2.5,-0.0625 z"
         transform="translate(0,796.36218)"
         id="path4465" />
      <path
         inkscape:connector-curvature="0"
         style="font-size:medium;font-style:normal;font-variant:normal;font-weight:normal;font-stretch:normal;text-indent:0;text-align:start;text-decoration:none;line-height:normal;letter-spacing:normal;word-spacing:normal;text-transform:none;direction:ltr;block-progression:tb;writing-mode:lr-tb;text-anchor:start;baseline-shift:baseline;color:#000000;fill:#ffffff;fill-opacity:1;stroke:none;stroke-width:2.5;marker:none;visibility:visible;display:inline;overflow:visible;enable-background:accumulate;font-family:Sans;-inkscape-font-specification:Sans"
         d="m 71.25,624.03125 c -30.927946,0 -56,25.0721 -56,56 0,30.928 25.072054,56 56,56 30.92794,0 56,-25.072 56,-56 0,-30.9279 -25.07206,-56 -56,-56 z m 0,5 c 28.166522,0 51,22.8335 51,51 0,28.1665 -22.833478,51 -51,51 -28.166523,0 -51,-22.8335 -51,-51 0,-28.1665 22.833477,-51 51,-51 z m 0,6 c -2.761425,0 -5,2.2386 -5,5 0,2.7614 2.238575,5 5,5 2.761424,0 5,-2.2386 5,-5 0,-2.7614 -2.238576,-5 -5,-5 z m -16.03125,7.0625 6.90625,48.1875 c 2.612324,-1.7355 5.753659,-2.75 9.125,-2.75 0.437645,0 0.883439,0.0295 1.3125,0.0625 l -17.34375,-45.5 z m -12.25,4.65625 c -1.279612,0 -2.554939,0.49245 -3.53125,1.46875 -1.952622,1.9526 -1.952622,5.1099 0,7.0625 1.952621,1.9526 5.109878,1.9526 7.0625,0 1.952621,-1.9526 1.952621,-5.1099 0,-7.0625 -0.976312,-0.9763 -2.251638,-1.46875 -3.53125,-1.46875 z m 56.5625,0 c -1.27961,0 -2.55494,0.49245 -3.53125,1.46875 -1.95262,1.9526 -1.95262,5.1099 0,7.0625 1.95262,1.9526 5.10988,1.9526 7.0625,0 1.95262,-1.9526 1.95262,-5.1099 0,-7.0625 -0.97631,-0.9763 -2.25164,-1.46875 -3.53125,-1.46875 z M 31.25,675.03125 c -2.761425,0 -5,2.2386 -5,5 0,2.7614 2.238575,5 5,5 2.761423,0 5,-2.2386 5,-5 0,-2.7614 -2.238577,-5 -5,-5 z m 80,0 c -2.76142,0 -5,2.2386 -5,5 0,2.7614 2.23858,5 5,5 2.76142,0 5,-2.2386 5,-5 0,-2.7614 -2.23858,-5 -5,-5 z m -40,15 c -7.731987,0 -14,6.268 -14,14 0,7.732 6.268013,14 14,14 7.731986,0 14,-6.268 14,-14 0,-7.732 -6.268014,-14 -14,-14 z m -16.5,13.875 c -6.856561,2.0152 -13.187512,5.2269 -18.75,9.4375 1.157144,1.2236 2.409498,2.4021 3.6875,3.5 4.732025,-3.4627 10.045327,-6.171 15.78125,-7.9375 -0.475587,-1.5404 -0.71875,-3.1784 -0.71875,-4.875 0,-0.047 -4e-4,-0.077 0,-0.125 z m 33,0 c 4e-4,0.047 0,0.077 0,0.125 0,1.6966 -0.24317,3.3346 -0.71875,4.875 5.73592,1.7665 11.08047,4.4748 15.8125,7.9375 1.278,-1.0979 2.49911,-2.2764 3.65625,-3.5 -5.56248,-4.2106 -11.89344,-7.4223 -18.75,-9.4375 z"
         transform="translate(0,796.36218)"
         id="path4842" />
      <path
         style="fill:#ffffff;fill-opacity:1;stroke:none"
         d="m 216,1420.3935 -32.03125,56.0312 56.03125,-32.0312 -24,-24 z m -34.53125,0.062 c -24.01276,1.0577 -44.06629,17.2409 -50.9375,39.25 1.29154,4.5463 2.08461,9.3067 2.28125,14.2187 l 0.21875,0 c 1.26426,-26.1878 22.2498,-47.2046 48.4375,-48.4687 l 0,-5 z m 5,0 0,5 c 7.61963,0.3693 14.80313,2.4288 21.1875,5.7812 l 2.5,-4.3437 c -7.11843,-3.7679 -15.16569,-6.0612 -23.6875,-6.4375 z m -5,16.0312 c -7.51807,0.4664 -14.48388,3.0107 -20.3125,7.0625 1.41927,0.9345 2.56129,2.2439 3.3125,3.7813 4.92071,-3.304 10.74063,-5.4006 17,-5.8438 l 0,-5 z m 5,0 0,5 c 4.73006,0.3365 9.19203,1.6278 13.21875,3.6563 l 2.5,-4.3438 c -4.76425,-2.4408 -10.08743,-3.9619 -15.71875,-4.3125 z m -30.53125,8 c -3.86761,0 -7,3.1324 -7,7 0,3.8676 3.13239,7 7,7 3.86761,0 7,-3.1324 7,-7 0,-3.8676 -3.13239,-7 -7,-7 z m 77.5625,5.75 -4.34375,2.5 c 3.35238,6.3844 5.41186,13.5679 5.78125,21.1875 l 5,0 c -0.37629,-8.5218 -2.66957,-16.5691 -6.4375,-23.6875 z m -52.03125,2.3125 c -11.261,1.1679 -20.20935,10.1137 -21.375,21.375 l 5.03125,0 c 1.11892,-8.4916 7.85375,-15.2227 16.34375,-16.3437 l 0,-5.0313 z m 5,0 0,5.0313 c 1.85208,0.2483 3.63512,0.7609 5.28125,1.5 l 2.5,-4.375 c -2.39848,-1.1367 -5.02607,-1.8722 -7.78125,-2.1563 z m -37.8125,5.0313 c -2.63122,4.9214 -4.26176,10.4653 -4.625,16.3437 l 5.03125,0 c 0.34091,-4.8222 1.65307,-9.3818 3.75,-13.4687 -1.63314,-0.5715 -3.06792,-1.5749 -4.15625,-2.875 z m 70.9375,0.625 -4.34375,2.5 c 2.02853,4.0268 3.31979,8.4887 3.65625,13.2187 l 5,0 c -0.35054,-5.6313 -1.87171,-10.9544 -4.3125,-15.7187 z m -13.90625,7.9375 -4.375,2.5 c 0.7391,1.6462 1.25166,3.4291 1.5,5.2812 l 5.03125,0 c -0.2841,-2.7552 -1.01957,-5.3827 -2.15625,-7.7812 z m -72.875,12.7812 c -0.20114,4.9004 -0.99026,9.6518 -2.28125,14.1875 6.86274,22.0237 26.91433,38.2231 50.9375,39.2813 l 0,-5.0313 c -26.1877,-1.2641 -47.17324,-22.2497 -48.4375,-48.4375 l -0.21875,0 z m 11.21875,0 c 1.23936,20.1095 17.32824,36.198 37.4375,37.4375 l 0,-5.0312 c -17.33773,-1.2275 -31.17944,-15.0667 -32.40625,-32.4063 l -5.03125,0 z m 16.0625,0 c 0.75623,7.2946 4.79361,13.6327 10.59375,17.5 0.19905,-1.7832 0.86005,-3.4357 1.90625,-4.7812 -4.00334,-2.9939 -6.78576,-7.5234 -7.46875,-12.7188 l -5.03125,0 z m 42.71875,0 c -0.99395,7.5677 -6.44148,13.7028 -13.625,15.75 0.26839,0.879 0.40625,1.8456 0.40625,2.8125 0,0.8141 -0.0887,1.5896 -0.28125,2.3438 9.90606,-2.2443 17.46534,-10.6034 18.53125,-20.9063 l -5.03125,0 z m 16.0625,0 c -1.22682,17.3396 -15.06852,31.1788 -32.40625,32.4063 l 0,5.0312 c 20.10926,-1.2395 36.19814,-17.328 37.4375,-37.4375 l -5.03125,0 z m 16.0625,0 c -0.18128,3.7622 -0.76595,7.4025 -1.71875,10.9063 1.75145,0.1607 3.34115,0.8002 4.6875,1.7812 1.14234,-4.0636 1.84028,-8.3062 2.03125,-12.6875 l -5,0 z m -54.84375,11.5313 c -3.86761,0 -7,3.1636 -7,7.0312 0,3.8676 3.13239,7 7,7 3.86761,0 7.03125,-3.1324 7.03125,-7 0,-3.8676 -3.16364,-7.0312 -7.03125,-7.0312 z m 52.25,1.8437 c -3.86761,0 -7,3.1324 -7,7 0,3.8676 3.13239,7 7,7 3.86761,0 7,-3.1324 7,-7 0,-3.8676 -3.13239,-7 -7,-7 z m -6.78125,13.6563 c -8.79617,12.3581 -22.96244,20.6263 -39.09375,21.4062 l 0,5.0313 c 17.98647,-0.7901 33.78822,-10.055 43.46875,-23.9063 -1.67942,-0.4382 -3.19268,-1.3325 -4.375,-2.5312 z"
         id="path4513"
         inkscape:connector-curvature="0" />
    </g>
  </g>
</svg>
