<?xml version="1.0" encoding="UTF-8" standalone="no"?>
<!-- Created with Inkscape (http://www.inkscape.org/) -->

<svg
   xmlns:dc="http://purl.org/dc/elements/1.1/"
   xmlns:cc="http://creativecommons.org/ns#"
   xmlns:rdf="http://www.w3.org/1999/02/22-rdf-syntax-ns#"
   xmlns:svg="http://www.w3.org/2000/svg"
   xmlns="http://www.w3.org/2000/svg"
   xmlns:sodipodi="http://sodipodi.sourceforge.net/DTD/sodipodi-0.dtd"
   xmlns:inkscape="http://www.inkscape.org/namespaces/inkscape"
   width="40"
   height="40"
   id="svg3351"
   version="1.1"
   inkscape:version="0.48.2 r9819"
   sodipodi:docname="clock-icon.svg">
  <defs
     id="defs3353" />
  <sodipodi:namedview
     id="base"
     pagecolor="#ffffff"
     bordercolor="#666666"
     borderopacity="1.0"
     inkscape:pageopacity="0.0"
     inkscape:pageshadow="2"
     inkscape:zoom="0.49497475"
     inkscape:cx="536.60675"
     inkscape:cy="207.84408"
     inkscape:document-units="px"
     inkscape:current-layer="layer1"
     showgrid="true"
     inkscape:window-width="1600"
     inkscape:window-height="878"
     inkscape:window-x="247"
     inkscape:window-y="18"
     inkscape:window-maximized="0">
    <inkscape:grid
       type="xygrid"
       id="grid3386"
       empspacing="5"
       visible="true"
       enabled="true"
       snapvisiblegridlinesonly="true" />
  </sodipodi:namedview>
  <metadata
     id="metadata3356">
    <rdf:RDF>
      <cc:Work
         rdf:about="">
        <dc:format>image/svg+xml</dc:format>
        <dc:type
           rdf:resource="http://purl.org/dc/dcmitype/StillImage" />
        <dc:title />
      </cc:Work>
    </rdf:RDF>
  </metadata>
  <g
     inkscape:label="Ebene 1"
     inkscape:groupmode="layer"
     id="layer1"
     transform="translate(0,-1012.3622)">
    <path
       sodipodi:type="arc"
       style="fill:#a00000;fill-opacity:1;fill-rule:evenodd;stroke:none"
       id="path3822"
       sodipodi:cx="21.5"
       sodipodi:cy="24.5"
       sodipodi:rx="13.5"
       sodipodi:ry="13.5"
       d="M 35,24.5 C 35,31.955844 28.955844,38 21.5,38 14.044156,38 8,31.955844 8,24.5 8,17.044156 14.044156,11 21.5,11 28.955844,11 35,17.044156 35,24.5 z"
       transform="matrix(1.4814815,0,0,1.4814815,-11.851846,996.06588)"
       inkscape:export-filename="C:\Users\Hanne Nobis\Dropbox\icons\icon-automation-32.png"
       inkscape:export-xdpi="90"
       inkscape:export-ydpi="90" />
    <path
       id="path4128"
       d="m 20.000006,1017.9622 c -7.731987,0 -14.0000002,6.268 -14.0000002,14 0,7.732 6.2680132,14 14.0000002,14 7.731987,0 14,-6.268 14,-14 0,-7.732 -6.268013,-14 -14,-14 z m 0,1.25 c 7.04163,0 12.75,5.7083 12.75,12.75 0,7.0416 -5.70837,12.75 -12.75,12.75 -7.04163,0 -12.7500002,-5.7084 -12.7500002,-12.75 0,-7.0417 5.7083702,-12.75 12.7500002,-12.75 z"
       style="fill:#ffffff;fill-opacity:1;stroke:none"
       inkscape:connector-curvature="0" />
    <path
       style="font-size:medium;font-style:normal;font-variant:normal;font-weight:normal;font-stretch:normal;text-indent:0;text-align:start;text-decoration:none;line-height:normal;letter-spacing:normal;word-spacing:normal;text-transform:none;direction:ltr;block-progression:tb;writing-mode:lr-tb;text-anchor:start;baseline-shift:baseline;color:#000000;fill:#ffffff;fill-opacity:1;stroke:none;stroke-width:15;marker:none;visibility:visible;display:inline;overflow:visible;enable-background:accumulate;font-family:Sans;-inkscape-font-specification:Sans"
       d="m 19.984381,1021.9521 a 0.9375938,0.9375938 0 0 0 -0.921874,0.9492 l 0,9.0625 a 0.9375938,0.9375938 0 1 0 1.874999,0 l 0,-9.0625 a 0.9375938,0.9375938 0 0 0 -0.953125,-0.9492 z"
       id="path63"
       inkscape:connector-curvature="0" />
    <path
       style="font-size:medium;font-style:normal;font-variant:normal;font-weight:normal;font-stretch:normal;text-indent:0;text-align:start;text-decoration:none;line-height:normal;letter-spacing:normal;word-spacing:normal;text-transform:none;direction:ltr;block-progression:tb;writing-mode:lr-tb;text-anchor:start;baseline-shift:baseline;color:#000000;fill:#ffffff;fill-opacity:1;stroke:none;stroke-width:15;marker:none;visibility:visible;display:inline;overflow:visible;enable-background:accumulate;font-family:Sans;-inkscape-font-specification:Sans"
       d="m 19.906256,1031.0263 c -1.249887,0.2017 -0.906033,1.8911 0.09375,1.875 l 7.054688,0 c 0.495293,0.01 0.950853,-0.4422 0.950853,-0.9375 0,-0.4954 -0.45556,-0.9445 -0.950853,-0.9375 l -7.054688,0 c -0.03122,0 -0.06253,0 -0.09375,0 z"
       id="path65"
       inkscape:connector-curvature="0"
       sodipodi:nodetypes="cccsccc" />
    <path
       style="font-size:medium;font-style:normal;font-variant:normal;font-weight:normal;font-stretch:normal;text-indent:0;text-align:start;text-decoration:none;line-height:normal;letter-spacing:normal;word-spacing:normal;text-transform:none;direction:ltr;block-progression:tb;writing-mode:lr-tb;text-anchor:start;baseline-shift:baseline;color:#000000;fill:#ffffff;fill-opacity:1;stroke:none;stroke-width:5;marker:none;visibility:visible;display:inline;overflow:visible;enable-background:accumulate;font-family:Sans;-inkscape-font-specification:Sans"
       d="m 19.9961,1040.4872 a 0.31253126,0.31253126 0 0 0 -0.308594,0.3164 l 0,2.6289 a 0.31253126,0.31253126 0 1 0 0.625,0 l 0,-2.6289 a 0.31253126,0.31253126 0 0 0 -0.316406,-0.3164 z"
       id="path4163"
       inkscape:connector-curvature="0" />
    <path
       style="font-size:medium;font-style:normal;font-variant:normal;font-weight:normal;font-stretch:normal;text-indent:0;text-align:start;text-decoration:none;line-height:normal;letter-spacing:normal;word-spacing:normal;text-transform:none;direction:ltr;block-progression:tb;writing-mode:lr-tb;text-anchor:start;baseline-shift:baseline;color:#000000;fill:#ffffff;fill-opacity:1;stroke:none;stroke-width:5;marker:none;visibility:visible;display:inline;overflow:visible;enable-background:accumulate;font-family:Sans;-inkscape-font-specification:Sans"
       d="m 8.5000058,1031.6513 a 0.31289051,0.31289051 0 0 0 0.03125,0.625 l 2.6250002,0 a 0.31253126,0.31253126 0 1 0 0,-0.625 l -2.6250002,0 a 0.31253126,0.31253126 0 0 0 -0.03125,0 z"
       id="path4165"
       inkscape:connector-curvature="0" />
    <path
       id="path69"
       d="m 28.812507,1031.6497 a 0.31289038,0.31289038 0 0 0 -0.1875,0.078 1.0688324,1.0688324 0 0 1 -0.0039,0.4727 0.31289038,0.31289038 0 0 0 0.222656,0.074 l 2.625001,0 a 0.31253126,0.31253126 0 1 0 0,-0.625 l -2.625001,0 a 0.31253126,0.31253126 0 0 0 -0.03125,0 z"
       style="font-size:medium;font-style:normal;font-variant:normal;font-weight:normal;font-stretch:normal;text-indent:0;text-align:start;text-decoration:none;line-height:normal;letter-spacing:normal;word-spacing:normal;text-transform:none;direction:ltr;block-progression:tb;writing-mode:lr-tb;text-anchor:start;baseline-shift:baseline;color:#000000;fill:#ffffff;fill-opacity:1;stroke:none;stroke-width:5;marker:none;visibility:visible;display:inline;overflow:visible;enable-background:accumulate;font-family:Sans;-inkscape-font-specification:Sans"
       inkscape:connector-curvature="0" />
    <path
       id="path4169"
       d="m 19.9961,1020.1731 a 0.31253126,0.31253126 0 0 0 -0.308594,0.3203 l 0,0.9102 a 1.0396469,1.0396469 0 0 1 0.296875,-0.047 1.0396469,1.0396469 0 0 1 0.328125,0.047 l 0,-0.9102 a 0.31253126,0.31253126 0 0 0 -0.316406,-0.3203 z"
       style="font-size:medium;font-style:normal;font-variant:normal;font-weight:normal;font-stretch:normal;text-indent:0;text-align:start;text-decoration:none;line-height:normal;letter-spacing:normal;word-spacing:normal;text-transform:none;direction:ltr;block-progression:tb;writing-mode:lr-tb;text-anchor:start;baseline-shift:baseline;color:#000000;fill:#ffffff;fill-opacity:1;stroke:none;stroke-width:5;marker:none;visibility:visible;display:inline;overflow:visible;enable-background:accumulate;font-family:Sans;-inkscape-font-specification:Sans"
       inkscape:connector-curvature="0" />
    <path
       style="font-size:medium;font-style:normal;font-variant:normal;font-weight:normal;font-stretch:normal;text-indent:0;text-align:start;text-decoration:none;line-height:normal;letter-spacing:normal;word-spacing:normal;text-transform:none;direction:ltr;block-progression:tb;writing-mode:lr-tb;text-anchor:start;baseline-shift:baseline;color:#000000;fill:#ffffff;fill-opacity:1;stroke:none;stroke-width:5;marker:none;visibility:visible;display:inline;overflow:visible;enable-background:accumulate;font-family:Sans;-inkscape-font-specification:Sans"
       d="m 29.914069,1025.913 a 0.31253126,0.31253126 0 0 0 -0.136718,0.043 l -2.277344,1.3125 a 0.31323768,0.31323768 0 1 0 0.3125,0.5429 l 2.277344,-1.3125 a 0.31253126,0.31253126 0 0 0 -0.175782,-0.5859 z"
       id="path4171"
       inkscape:connector-curvature="0" />
    <path
       style="font-size:medium;font-style:normal;font-variant:normal;font-weight:normal;font-stretch:normal;text-indent:0;text-align:start;text-decoration:none;line-height:normal;letter-spacing:normal;word-spacing:normal;text-transform:none;direction:ltr;block-progression:tb;writing-mode:lr-tb;text-anchor:start;baseline-shift:baseline;color:#000000;fill:#ffffff;fill-opacity:1;stroke:none;stroke-width:5;marker:none;visibility:visible;display:inline;overflow:visible;enable-background:accumulate;font-family:Sans;-inkscape-font-specification:Sans"
       d="m 25.707037,1021.7138 a 0.31253126,0.31253126 0 0 0 -0.242187,0.1601 l -1.3125,2.2735 a 0.31253126,0.31253126 0 1 0 0.539063,0.3125 l 1.3125,-2.2735 a 0.31253126,0.31253126 0 0 0 -0.296876,-0.4726 z"
       id="path4173"
       inkscape:connector-curvature="0" />
    <path
       style="font-size:medium;font-style:normal;font-variant:normal;font-weight:normal;font-stretch:normal;text-indent:0;text-align:start;text-decoration:none;line-height:normal;letter-spacing:normal;word-spacing:normal;text-transform:none;direction:ltr;block-progression:tb;writing-mode:lr-tb;text-anchor:start;baseline-shift:baseline;color:#000000;fill:#ffffff;fill-opacity:1;stroke:none;stroke-width:5;marker:none;visibility:visible;display:inline;overflow:visible;enable-background:accumulate;font-family:Sans;-inkscape-font-specification:Sans"
       d="m 14.250006,1021.7138 a 0.31253126,0.31253126 0 0 0 -0.253906,0.4726 l 1.3125,2.2735 a 0.31253126,0.31253126 0 1 0 0.539063,-0.3125 l -1.3125,-2.2735 a 0.31253126,0.31253126 0 0 0 -0.285157,-0.1601 z"
       id="path4175"
       inkscape:connector-curvature="0" />
    <path
       style="font-size:medium;font-style:normal;font-variant:normal;font-weight:normal;font-stretch:normal;text-indent:0;text-align:start;text-decoration:none;line-height:normal;letter-spacing:normal;word-spacing:normal;text-transform:none;direction:ltr;block-progression:tb;writing-mode:lr-tb;text-anchor:start;baseline-shift:baseline;color:#000000;fill:#ffffff;fill-opacity:1;stroke:none;stroke-width:5;marker:none;visibility:visible;display:inline;overflow:visible;enable-background:accumulate;font-family:Sans;-inkscape-font-specification:Sans"
       d="m 10.042975,1025.913 a 0.31253126,0.31253126 0 0 0 -0.1328128,0.5859 l 2.2773438,1.3125 a 0.31323766,0.31323766 0 1 0 0.312499,-0.5429 l -2.277342,-1.3125 a 0.31253126,0.31253126 0 0 0 -0.179688,-0.043 z"
       id="path4177"
       inkscape:connector-curvature="0" />
    <path
       style="font-size:medium;font-style:normal;font-variant:normal;font-weight:normal;font-stretch:normal;text-indent:0;text-align:start;text-decoration:none;line-height:normal;letter-spacing:normal;word-spacing:normal;text-transform:none;direction:ltr;block-progression:tb;writing-mode:lr-tb;text-anchor:start;baseline-shift:baseline;color:#000000;fill:#ffffff;fill-opacity:1;stroke:none;stroke-width:5;marker:none;visibility:visible;display:inline;overflow:visible;enable-background:accumulate;font-family:Sans;-inkscape-font-specification:Sans"
       d="m 12.324225,1036.0692 a 0.31253126,0.31253126 0 0 0 -0.136719,0.043 l -2.2773438,1.3125 a 0.3132514,0.3132514 0 1 0 0.3125008,0.543 l 2.277342,-1.3125 a 0.31253126,0.31253126 0 0 0 -0.17578,-0.586 z"
       id="path4179"
       inkscape:connector-curvature="0" />
    <path
       style="font-size:medium;font-style:normal;font-variant:normal;font-weight:normal;font-stretch:normal;text-indent:0;text-align:start;text-decoration:none;line-height:normal;letter-spacing:normal;word-spacing:normal;text-transform:none;direction:ltr;block-progression:tb;writing-mode:lr-tb;text-anchor:start;baseline-shift:baseline;color:#000000;fill:#ffffff;fill-opacity:1;stroke:none;stroke-width:5;marker:none;visibility:visible;display:inline;overflow:visible;enable-background:accumulate;font-family:Sans;-inkscape-font-specification:Sans"
       d="m 15.550787,1039.3036 a 0.31253126,0.31253126 0 0 0 -0.242187,0.1602 l -1.3125,2.2734 a 0.31253126,0.31253126 0 1 0 0.539063,0.3125 l 1.3125,-2.2734 a 0.31253126,0.31253126 0 0 0 -0.296876,-0.4727 z"
       id="path4181"
       inkscape:connector-curvature="0" />
    <path
       style="font-size:medium;font-style:normal;font-variant:normal;font-weight:normal;font-stretch:normal;text-indent:0;text-align:start;text-decoration:none;line-height:normal;letter-spacing:normal;word-spacing:normal;text-transform:none;direction:ltr;block-progression:tb;writing-mode:lr-tb;text-anchor:start;baseline-shift:baseline;color:#000000;fill:#ffffff;fill-opacity:1;stroke:none;stroke-width:5;marker:none;visibility:visible;display:inline;overflow:visible;enable-background:accumulate;font-family:Sans;-inkscape-font-specification:Sans"
       d="m 24.406257,1039.3036 a 0.31253126,0.31253126 0 0 0 -0.253907,0.4727 l 1.3125,2.2734 a 0.31253126,0.31253126 0 1 0 0.539063,-0.3125 l -1.3125,-2.2734 a 0.31253126,0.31253126 0 0 0 -0.285156,-0.1602 z"
       id="path4183"
       inkscape:connector-curvature="0" />
    <path
       style="font-size:medium;font-style:normal;font-variant:normal;font-weight:normal;font-stretch:normal;text-indent:0;text-align:start;text-decoration:none;line-height:normal;letter-spacing:normal;word-spacing:normal;text-transform:none;direction:ltr;block-progression:tb;writing-mode:lr-tb;text-anchor:start;baseline-shift:baseline;color:#000000;fill:#ffffff;fill-opacity:1;stroke:none;stroke-width:5;marker:none;visibility:visible;display:inline;overflow:visible;enable-background:accumulate;font-family:Sans;-inkscape-font-specification:Sans"
       d="m 27.632819,1036.0692 a 0.31253126,0.31253126 0 0 0 -0.132812,0.586 l 2.277344,1.3125 a 0.3132512,0.3132512 0 1 0 0.3125,-0.543 l -2.277344,-1.3125 a 0.31253126,0.31253126 0 0 0 -0.179688,-0.043 z"
       id="path4185"
       inkscape:connector-curvature="0" />
  </g>
</svg>
