<?xml version="1.0" encoding="UTF-8" standalone="no"?>
<!-- Created with Inkscape (http://www.inkscape.org/) -->

<svg
   xmlns:dc="http://purl.org/dc/elements/1.1/"
   xmlns:cc="http://creativecommons.org/ns#"
   xmlns:rdf="http://www.w3.org/1999/02/22-rdf-syntax-ns#"
   xmlns:svg="http://www.w3.org/2000/svg"
   xmlns="http://www.w3.org/2000/svg"
   xmlns:sodipodi="http://sodipodi.sourceforge.net/DTD/sodipodi-0.dtd"
   xmlns:inkscape="http://www.inkscape.org/namespaces/inkscape"
   width="1000"
   height="1000"
   id="svg3351"
   version="1.1"
   inkscape:version="0.48.2 r9819"
   sodipodi:docname="speech-icon.svg">
  <defs
     id="defs3353" />
  <sodipodi:namedview
     id="base"
     pagecolor="#ffffff"
     bordercolor="#666666"
     borderopacity="1.0"
     inkscape:pageopacity="0.0"
     inkscape:pageshadow="2"
     inkscape:zoom="0.49497475"
     inkscape:cx="536.60675"
     inkscape:cy="672.52101"
     inkscape:document-units="px"
     inkscape:current-layer="layer1"
     showgrid="true"
     inkscape:window-width="1920"
     inkscape:window-height="1018"
     inkscape:window-x="1592"
     inkscape:window-y="-8"
     inkscape:window-maximized="0">
    <inkscape:grid
       type="xygrid"
       id="grid3386"
       empspacing="5"
       visible="true"
       enabled="true"
       snapvisiblegridlinesonly="true" />
  </sodipodi:namedview>
  <metadata
     id="metadata3356">
    <rdf:RDF>
      <cc:Work
         rdf:about="">
        <dc:format>image/svg+xml</dc:format>
        <dc:type
           rdf:resource="http://purl.org/dc/dcmitype/StillImage" />
        <dc:title></dc:title>
      </cc:Work>
    </rdf:RDF>
  </metadata>
  <g
     inkscape:label="Ebene 1"
     inkscape:groupmode="layer"
     id="layer1"
     transform="translate(0,-52.36218)">
    <path
       sodipodi:type="arc"
       style="fill:#a00000;fill-opacity:1;fill-rule:evenodd;stroke:none"
       id="path3822"
       sodipodi:cx="21.5"
       sodipodi:cy="24.5"
       sodipodi:rx="13.5"
       sodipodi:ry="13.5"
       d="m 35,24.5 a 13.5,13.5 0 1 1 -27,0 13.5,13.5 0 1 1 27,0 z"
       transform="matrix(37.037037,0,0,37.037037,-296.29629,-355.04523)"
       inkscape:export-filename="C:\Users\Hanne Nobis\Dropbox\icons\icon-automation-32.png"
       inkscape:export-xdpi="90"
       inkscape:export-ydpi="90" />
    <path
       id="path4128"
       d="m 500,192.36218 c -193.29966,0 -350,156.70035 -350,350.00003 0,193.29966 156.70034,350 350,350 193.29968,0 350,-156.70034 350,-350 C 850,349.06253 693.29968,192.36218 500,192.36218 z m 0,31.25002 c 176.04076,0 318.75001,142.70925 318.75001,318.75001 0,176.04074 -142.70925,318.75 -318.75001,318.75 -176.04074,0 -318.75,-142.70926 -318.75,-318.75 C 181.25,366.32145 323.95926,223.6122 500,223.6122 z"
       style="fill:#ffffff;fill-opacity:1;stroke:none"
       inkscape:connector-curvature="0" />
    <path
       style="font-size:medium;font-style:normal;font-variant:normal;font-weight:normal;font-stretch:normal;text-indent:0;text-align:start;text-decoration:none;line-height:normal;letter-spacing:normal;word-spacing:normal;text-transform:none;direction:ltr;block-progression:tb;writing-mode:lr-tb;text-anchor:start;baseline-shift:baseline;color:#000000;fill:#ffffff;fill-opacity:1;stroke:none;stroke-width:15;marker:none;visibility:visible;display:inline;overflow:visible;enable-background:accumulate;font-family:Sans;-inkscape-font-specification:Sans"
       d="m 499.60939,292.10928 a 23.439845,23.439845 0 0 0 -23.04687,23.73048 l 0,226.5625 a 23.439845,23.439845 0 1 0 46.87499,0 l 0,-226.5625 a 23.439845,23.439845 0 0 0 -23.82812,-23.73048 z"
       id="path63"
       inkscape:connector-curvature="0" />
    <path
       style="font-size:medium;font-style:normal;font-variant:normal;font-weight:normal;font-stretch:normal;text-indent:0;text-align:start;text-decoration:none;line-height:normal;letter-spacing:normal;word-spacing:normal;text-transform:none;direction:ltr;block-progression:tb;writing-mode:lr-tb;text-anchor:start;baseline-shift:baseline;color:#000000;fill:#ffffff;fill-opacity:1;stroke:none;stroke-width:15;marker:none;visibility:visible;display:inline;overflow:visible;enable-background:accumulate;font-family:Sans;-inkscape-font-specification:Sans"
       d="m 497.65626,518.96476 c -31.24717,5.04185 -22.65084,47.27832 2.34374,46.87501 l 176.36721,0 c 12.38232,0.17499 23.77131,-11.05396 23.77131,-23.43751 0,-12.38356 -11.38899,-23.61263 -23.77131,-23.4375 l -176.36721,0 c -0.78057,-0.039 -1.56315,-0.039 -2.34374,0 z"
       id="path65"
       inkscape:connector-curvature="0"
       sodipodi:nodetypes="cccsccc" />
    <path
       style="font-size:medium;font-style:normal;font-variant:normal;font-weight:normal;font-stretch:normal;text-indent:0;text-align:start;text-decoration:none;line-height:normal;letter-spacing:normal;word-spacing:normal;text-transform:none;direction:ltr;block-progression:tb;writing-mode:lr-tb;text-anchor:start;baseline-shift:baseline;color:#000000;fill:#ffffff;fill-opacity:1;stroke:none;stroke-width:5;marker:none;visibility:visible;display:inline;overflow:visible;enable-background:accumulate;font-family:Sans;-inkscape-font-specification:Sans"
       d="m 499.90235,755.4882 a 7.8132816,7.8132816 0 0 0 -7.71484,7.91017 l 0,65.72265 a 7.8132816,7.8132816 0 1 0 15.625,0 l 0,-65.72265 a 7.8132816,7.8132816 0 0 0 -7.91016,-7.91017 z"
       id="path4163"
       inkscape:connector-curvature="0" />
    <path
       style="font-size:medium;font-style:normal;font-variant:normal;font-weight:normal;font-stretch:normal;text-indent:0;text-align:start;text-decoration:none;line-height:normal;letter-spacing:normal;word-spacing:normal;text-transform:none;direction:ltr;block-progression:tb;writing-mode:lr-tb;text-anchor:start;baseline-shift:baseline;color:#000000;fill:#ffffff;fill-opacity:1;stroke:none;stroke-width:5;marker:none;visibility:visible;display:inline;overflow:visible;enable-background:accumulate;font-family:Sans;-inkscape-font-specification:Sans"
       d="m 212.5,534.58976 a 7.8222628,7.8222628 0 0 0 0.78124,15.625 l 65.62502,0 a 7.8132816,7.8132816 0 1 0 0,-15.625 l -65.62502,0 a 7.8132816,7.8132816 0 0 0 -0.78124,0 z"
       id="path4165"
       inkscape:connector-curvature="0" />
    <path
       id="path69"
       d="m 720.31253,534.5497 a 7.8222595,7.8222595 0 0 0 -4.68751,1.95313 26.720809,26.720809 0 0 1 -0.0975,11.8164 7.8222595,7.8222595 0 0 0 5.56641,1.85547 l 65.62502,0 a 7.8132816,7.8132816 0 1 0 0,-15.625 l -65.62502,0 a 7.8132816,7.8132816 0 0 0 -0.78124,0 z"
       style="font-size:medium;font-style:normal;font-variant:normal;font-weight:normal;font-stretch:normal;text-indent:0;text-align:start;text-decoration:none;line-height:normal;letter-spacing:normal;word-spacing:normal;text-transform:none;direction:ltr;block-progression:tb;writing-mode:lr-tb;text-anchor:start;baseline-shift:baseline;color:#000000;fill:#ffffff;fill-opacity:1;stroke:none;stroke-width:5;marker:none;visibility:visible;display:inline;overflow:visible;enable-background:accumulate;font-family:Sans;-inkscape-font-specification:Sans"
       inkscape:connector-curvature="0" />
    <path
       id="path4169"
       d="m 499.90235,247.63564 a 7.8132816,7.8132816 0 0 0 -7.71484,8.00779 l 0,22.75391 a 25.991172,25.991172 0 0 1 7.42188,-1.17187 25.991172,25.991172 0 0 1 8.20312,1.17187 l 0,-22.75391 a 7.8132816,7.8132816 0 0 0 -7.91016,-8.00779 z"
       style="font-size:medium;font-style:normal;font-variant:normal;font-weight:normal;font-stretch:normal;text-indent:0;text-align:start;text-decoration:none;line-height:normal;letter-spacing:normal;word-spacing:normal;text-transform:none;direction:ltr;block-progression:tb;writing-mode:lr-tb;text-anchor:start;baseline-shift:baseline;color:#000000;fill:#ffffff;fill-opacity:1;stroke:none;stroke-width:5;marker:none;visibility:visible;display:inline;overflow:visible;enable-background:accumulate;font-family:Sans;-inkscape-font-specification:Sans"
       inkscape:connector-curvature="0" />
    <path
       style="font-size:medium;font-style:normal;font-variant:normal;font-weight:normal;font-stretch:normal;text-indent:0;text-align:start;text-decoration:none;line-height:normal;letter-spacing:normal;word-spacing:normal;text-transform:none;direction:ltr;block-progression:tb;writing-mode:lr-tb;text-anchor:start;baseline-shift:baseline;color:#000000;fill:#ffffff;fill-opacity:1;stroke:none;stroke-width:5;marker:none;visibility:visible;display:inline;overflow:visible;enable-background:accumulate;font-family:Sans;-inkscape-font-specification:Sans"
       d="m 747.85159,391.13273 a 7.8132816,7.8132816 0 0 0 -3.41797,1.07421 l -56.9336,32.81251 a 7.8309419,7.8309419 0 0 0 7.8125,13.57422 l 56.9336,-32.8125 a 7.8132816,7.8132816 0 0 0 -4.39453,-14.64844 z"
       id="path4171"
       inkscape:connector-curvature="0" />
    <path
       style="font-size:medium;font-style:normal;font-variant:normal;font-weight:normal;font-stretch:normal;text-indent:0;text-align:start;text-decoration:none;line-height:normal;letter-spacing:normal;word-spacing:normal;text-transform:none;direction:ltr;block-progression:tb;writing-mode:lr-tb;text-anchor:start;baseline-shift:baseline;color:#000000;fill:#ffffff;fill-opacity:1;stroke:none;stroke-width:5;marker:none;visibility:visible;display:inline;overflow:visible;enable-background:accumulate;font-family:Sans;-inkscape-font-specification:Sans"
       d="m 642.67579,286.15226 a 7.8132816,7.8132816 0 0 0 -6.05468,4.00389 l -32.8125,56.83595 a 7.8132816,7.8132816 0 1 0 13.47656,7.81249 l 32.8125,-56.83593 a 7.8132816,7.8132816 0 0 0 -7.42188,-11.8164 z"
       id="path4173"
       inkscape:connector-curvature="0" />
    <path
       style="font-size:medium;font-style:normal;font-variant:normal;font-weight:normal;font-stretch:normal;text-indent:0;text-align:start;text-decoration:none;line-height:normal;letter-spacing:normal;word-spacing:normal;text-transform:none;direction:ltr;block-progression:tb;writing-mode:lr-tb;text-anchor:start;baseline-shift:baseline;color:#000000;fill:#ffffff;fill-opacity:1;stroke:none;stroke-width:5;marker:none;visibility:visible;display:inline;overflow:visible;enable-background:accumulate;font-family:Sans;-inkscape-font-specification:Sans"
       d="m 356.25,286.15226 a 7.8132816,7.8132816 0 0 0 -6.34764,11.8164 l 32.8125,56.83593 a 7.8132816,7.8132816 0 1 0 13.47656,-7.81249 l -32.8125,-56.83595 A 7.8132816,7.8132816 0 0 0 356.25,286.15226 z"
       id="path4175"
       inkscape:connector-curvature="0" />
    <path
       style="font-size:medium;font-style:normal;font-variant:normal;font-weight:normal;font-stretch:normal;text-indent:0;text-align:start;text-decoration:none;line-height:normal;letter-spacing:normal;word-spacing:normal;text-transform:none;direction:ltr;block-progression:tb;writing-mode:lr-tb;text-anchor:start;baseline-shift:baseline;color:#000000;fill:#ffffff;fill-opacity:1;stroke:none;stroke-width:5;marker:none;visibility:visible;display:inline;overflow:visible;enable-background:accumulate;font-family:Sans;-inkscape-font-specification:Sans"
       d="m 251.07422,391.13273 a 7.8132816,7.8132816 0 0 0 -3.32031,14.64844 l 56.9336,32.8125 a 7.8309416,7.8309416 0 1 0 7.81248,-13.57422 l -56.93357,-32.81251 a 7.8132816,7.8132816 0 0 0 -4.4922,-1.07421 z"
       id="path4177"
       inkscape:connector-curvature="0" />
    <path
       style="font-size:medium;font-style:normal;font-variant:normal;font-weight:normal;font-stretch:normal;text-indent:0;text-align:start;text-decoration:none;line-height:normal;letter-spacing:normal;word-spacing:normal;text-transform:none;direction:ltr;block-progression:tb;writing-mode:lr-tb;text-anchor:start;baseline-shift:baseline;color:#000000;fill:#ffffff;fill-opacity:1;stroke:none;stroke-width:5;marker:none;visibility:visible;display:inline;overflow:visible;enable-background:accumulate;font-family:Sans;-inkscape-font-specification:Sans"
       d="m 308.10548,645.03898 a 7.8132816,7.8132816 0 0 0 -3.41797,1.07421 l -56.9336,32.8125 a 7.8309487,7.8309487 0 0 0 7.81251,13.57423 l 56.93357,-32.8125 a 7.8132816,7.8132816 0 0 0 -4.39451,-14.64844 z"
       id="path4179"
       inkscape:connector-curvature="0" />
    <path
       style="font-size:medium;font-style:normal;font-variant:normal;font-weight:normal;font-stretch:normal;text-indent:0;text-align:start;text-decoration:none;line-height:normal;letter-spacing:normal;word-spacing:normal;text-transform:none;direction:ltr;block-progression:tb;writing-mode:lr-tb;text-anchor:start;baseline-shift:baseline;color:#000000;fill:#ffffff;fill-opacity:1;stroke:none;stroke-width:5;marker:none;visibility:visible;display:inline;overflow:visible;enable-background:accumulate;font-family:Sans;-inkscape-font-specification:Sans"
       d="m 388.76954,725.89837 a 7.8132816,7.8132816 0 0 0 -6.05468,4.0039 l -32.8125,56.83593 a 7.8132816,7.8132816 0 1 0 13.47656,7.8125 l 32.8125,-56.83594 a 7.8132816,7.8132816 0 0 0 -7.42188,-11.81639 z"
       id="path4181"
       inkscape:connector-curvature="0" />
    <path
       style="font-size:medium;font-style:normal;font-variant:normal;font-weight:normal;font-stretch:normal;text-indent:0;text-align:start;text-decoration:none;line-height:normal;letter-spacing:normal;word-spacing:normal;text-transform:none;direction:ltr;block-progression:tb;writing-mode:lr-tb;text-anchor:start;baseline-shift:baseline;color:#000000;fill:#ffffff;fill-opacity:1;stroke:none;stroke-width:5;marker:none;visibility:visible;display:inline;overflow:visible;enable-background:accumulate;font-family:Sans;-inkscape-font-specification:Sans"
       d="m 610.15627,725.89837 a 7.8132816,7.8132816 0 0 0 -6.34766,11.81639 l 32.8125,56.83594 a 7.8132816,7.8132816 0 1 0 13.47656,-7.8125 l -32.8125,-56.83593 a 7.8132816,7.8132816 0 0 0 -7.1289,-4.0039 z"
       id="path4183"
       inkscape:connector-curvature="0" />
    <path
       style="font-size:medium;font-style:normal;font-variant:normal;font-weight:normal;font-stretch:normal;text-indent:0;text-align:start;text-decoration:none;line-height:normal;letter-spacing:normal;word-spacing:normal;text-transform:none;direction:ltr;block-progression:tb;writing-mode:lr-tb;text-anchor:start;baseline-shift:baseline;color:#000000;fill:#ffffff;fill-opacity:1;stroke:none;stroke-width:5;marker:none;visibility:visible;display:inline;overflow:visible;enable-background:accumulate;font-family:Sans;-inkscape-font-specification:Sans"
       d="m 690.82034,645.03898 a 7.8132816,7.8132816 0 0 0 -3.32032,14.64844 l 56.9336,32.8125 a 7.8309462,7.8309462 0 1 0 7.8125,-13.57423 l -56.9336,-32.8125 a 7.8132816,7.8132816 0 0 0 -4.49218,-1.07421 z"
       id="path4185"
       inkscape:connector-curvature="0" />
  </g>
</svg>
