<?xml version="1.0" encoding="UTF-8" standalone="no"?>
<!-- Created with Inkscape (http://www.inkscape.org/) -->

<svg
   xmlns:dc="http://purl.org/dc/elements/1.1/"
   xmlns:cc="http://creativecommons.org/ns#"
   xmlns:rdf="http://www.w3.org/1999/02/22-rdf-syntax-ns#"
   xmlns:svg="http://www.w3.org/2000/svg"
   xmlns="http://www.w3.org/2000/svg"
   xmlns:sodipodi="http://sodipodi.sourceforge.net/DTD/sodipodi-0.dtd"
   xmlns:inkscape="http://www.inkscape.org/namespaces/inkscape"
   width="1000"
   height="1000"
   id="svg3351"
   version="1.1"
   inkscape:version="0.48.2 r9819"
   sodipodi:docname="weekdays-icon.svg">
  <defs
     id="defs3353" />
  <sodipodi:namedview
     id="base"
     pagecolor="#ffffff"
     bordercolor="#666666"
     borderopacity="1.0"
     inkscape:pageopacity="0.0"
     inkscape:pageshadow="2"
     inkscape:zoom="0.49497475"
     inkscape:cx="531.55922"
     inkscape:cy="446.82116"
     inkscape:document-units="px"
     inkscape:current-layer="layer1"
     showgrid="true"
     inkscape:window-width="1920"
     inkscape:window-height="1018"
     inkscape:window-x="1592"
     inkscape:window-y="-8"
     inkscape:window-maximized="1"
     showguides="true"
     inkscape:guide-bbox="true">
    <inkscape:grid
       type="xygrid"
       id="grid3386"
       empspacing="5"
       visible="true"
       enabled="true"
       snapvisiblegridlinesonly="true" />
  </sodipodi:namedview>
  <metadata
     id="metadata3356">
    <rdf:RDF>
      <cc:Work
         rdf:about="">
        <dc:format>image/svg+xml</dc:format>
        <dc:type
           rdf:resource="http://purl.org/dc/dcmitype/StillImage" />
        <dc:title></dc:title>
      </cc:Work>
    </rdf:RDF>
  </metadata>
  <g
     inkscape:label="Ebene 1"
     inkscape:groupmode="layer"
     id="layer1"
     transform="translate(0,-52.36218)">
    <flowRoot
       xml:space="preserve"
       id="flowRoot3881"
       style="fill:black;stroke:none;stroke-opacity:1;stroke-width:1px;stroke-linejoin:miter;stroke-linecap:butt;fill-opacity:1;font-family:Sans;font-style:normal;font-weight:normal;font-size:40px;line-height:125%;letter-spacing:0px;word-spacing:0px"><flowRegion
         id="flowRegion3883"><rect
           id="rect3885"
           width="722.85712"
           height="257.14285"
           x="522.85712"
           y="682.85712" /></flowRegion><flowPara
         id="flowPara3887"></flowPara></flowRoot>    <path
       sodipodi:type="arc"
       style="fill:#a00000;fill-opacity:1;fill-rule:evenodd;stroke:none"
       id="path5541"
       sodipodi:cx="21.5"
       sodipodi:cy="24.5"
       sodipodi:rx="13.5"
       sodipodi:ry="13.5"
       d="m 35,24.5 a 13.5,13.5 0 1 1 -27,0 13.5,13.5 0 1 1 27,0 z"
       transform="matrix(37.037037,0,0,37.037037,-296.2963,-355.04523)"
       inkscape:export-filename="C:\Users\hnobis\Dropbox\Studienarbeit\Layout\icon-light-40.png"
       inkscape:export-xdpi="112.5"
       inkscape:export-ydpi="112.5" />
    <path
       sodipodi:type="arc"
       style="fill:#ffffff;fill-opacity:1;stroke:none"
       id="path5543"
       sodipodi:cx="10"
       sodipodi:cy="12"
       sodipodi:rx="2"
       sodipodi:ry="2"
       d="m 12,12 a 2,2 0 1 1 -4,0 2,2 0 1 1 4,0 z"
       transform="matrix(39.062502,0,0,23.437502,-96.94629,104.76105)" />
    <path
       sodipodi:type="arc"
       style="fill:#ffffff;fill-opacity:1;stroke:none"
       id="path5547"
       sodipodi:cx="14.5"
       sodipodi:cy="19.5"
       sodipodi:rx="2.5"
       sodipodi:ry="2.5"
       d="m 17,19.5 a 2.5,2.5 0 1 1 -5,0 2.5,2.5 0 1 1 5,0 z"
       transform="matrix(31.250002,0,0,31.250002,46.87561,161.73604)" />
    <path
       style="fill:#ffffff;fill-opacity:1;stroke:none"
       d="m 483.4287,177.36105 -62.5,125.00064 125,0 z"
       id="path5549"
       inkscape:connector-curvature="0"
       sodipodi:nodetypes="cccc" />
    <path
       style="fill:#ffffff;fill-opacity:1;stroke:none"
       d="m 652.6225,305.12418 0,125.00001 93.75,0 0,-125.00001 z"
       id="path5551"
       inkscape:connector-curvature="0"
       sodipodi:nodetypes="ccccc"
       inkscape:transform-center-x="15.624998"
       inkscape:transform-center-y="62.500003" />
    <path
       style="fill:#ffffff;fill-opacity:1;stroke:none"
       d="m 468.7507,302.36169 0,343.75001 c 0,0 -93.7501,-93.75 -125.0001,-125 -31.25,-31.25 -31.25,-93.75001 -31.25,-93.75001 l -31.25,0 c 0,0 0,62.50001 31.25,93.75001 49.4094,49.40938 156.2501,156.25 156.2501,156.25 l 0,31.25001 31.2499,0 0,-125.00002 c 136.7906,-28.47187 175.9844,-29.76562 218.75,-156.25 l -31.2499,0 c 0,0 0,62.50001 -62.5,93.75001 -62.5001,31.25 -125.0001,31.25 -125.0001,31.25 l 0,-250.00001 z"
       id="path5553"
       inkscape:connector-curvature="0"
       sodipodi:nodetypes="cczccscccccczccc" />
    <path
       inkscape:export-ydpi="112.5"
       inkscape:export-xdpi="112.5"
       inkscape:export-filename="C:\Users\hnobis\Dropbox\Studienarbeit\Layout\icon-light-40.png"
       transform="matrix(37.037037,0,0,37.037037,-296.2963,-355.04523)"
       d="m 35,24.5 a 13.5,13.5 0 1 1 -27,0 13.5,13.5 0 1 1 27,0 z"
       sodipodi:ry="13.5"
       sodipodi:rx="13.5"
       sodipodi:cy="24.5"
       sodipodi:cx="21.5"
       id="path4455"
       style="fill:#a00000;fill-opacity:1;fill-rule:evenodd;stroke:none"
       sodipodi:type="arc" />
    <path
       transform="matrix(39.062502,0,0,23.437502,-96.94629,104.76105)"
       d="m 12,12 a 2,2 0 1 1 -4,0 2,2 0 1 1 4,0 z"
       sodipodi:ry="2"
       sodipodi:rx="2"
       sodipodi:cy="12"
       sodipodi:cx="10"
       id="path4457"
       style="fill:#ffffff;fill-opacity:1;stroke:none"
       sodipodi:type="arc" />
    <path
       transform="matrix(31.250002,0,0,31.250002,46.87561,161.73604)"
       d="m 17,19.5 a 2.5,2.5 0 1 1 -5,0 2.5,2.5 0 1 1 5,0 z"
       sodipodi:ry="2.5"
       sodipodi:rx="2.5"
       sodipodi:cy="19.5"
       sodipodi:cx="14.5"
       id="path4459"
       style="fill:#ffffff;fill-opacity:1;stroke:none"
       sodipodi:type="arc" />
    <path
       sodipodi:nodetypes="cccc"
       inkscape:connector-curvature="0"
       id="path4461"
       d="m 483.4287,177.36105 -62.5,125.00064 125,0 z"
       style="fill:#ffffff;fill-opacity:1;stroke:none" />
    <path
       inkscape:transform-center-y="62.500003"
       inkscape:transform-center-x="15.624998"
       sodipodi:nodetypes="ccccc"
       inkscape:connector-curvature="0"
       id="path4463"
       d="m 652.6225,305.12418 0,125.00001 93.75,0 0,-125.00001 z"
       style="fill:#ffffff;fill-opacity:1;stroke:none" />
    <path
       sodipodi:nodetypes="cczccscccccczccc"
       inkscape:connector-curvature="0"
       id="path4466"
       d="m 468.7507,302.36169 0,343.75001 c 0,0 -93.7501,-93.75 -125.0001,-125 -31.25,-31.25 -31.25,-93.75001 -31.25,-93.75001 l -31.25,0 c 0,0 0,62.50001 31.25,93.75001 49.4094,49.40938 156.2501,156.25 156.2501,156.25 l 0,31.25001 31.2499,0 0,-125.00002 c 136.7906,-28.47187 175.9844,-29.76562 218.75,-156.25 l -31.2499,0 c 0,0 0,62.50001 -62.5,93.75001 -62.5001,31.25 -125.0001,31.25 -125.0001,31.25 l 0,-250.00001 z"
       style="fill:#ffffff;fill-opacity:1;stroke:none" />
  </g>
</svg>
