<?xml version="1.0" encoding="UTF-8" standalone="no"?>
<!-- Created with Inkscape (http://www.inkscape.org/) -->

<svg
   xmlns:dc="http://purl.org/dc/elements/1.1/"
   xmlns:cc="http://creativecommons.org/ns#"
   xmlns:rdf="http://www.w3.org/1999/02/22-rdf-syntax-ns#"
   xmlns:svg="http://www.w3.org/2000/svg"
   xmlns="http://www.w3.org/2000/svg"
   xmlns:sodipodi="http://sodipodi.sourceforge.net/DTD/sodipodi-0.dtd"
   xmlns:inkscape="http://www.inkscape.org/namespaces/inkscape"
   width="40"
   height="40"
   id="svg3351"
   version="1.1"
   inkscape:version="0.48.2 r9819"
   sodipodi:docname="custom-icon.svg">
  <defs
     id="defs3353" />
  <sodipodi:namedview
     id="base"
     pagecolor="#ffffff"
     bordercolor="#666666"
     borderopacity="1.0"
     inkscape:pageopacity="0.0"
     inkscape:pageshadow="2"
     inkscape:zoom="0.49497475"
     inkscape:cx="497.25348"
     inkscape:cy="538.8905"
     inkscape:document-units="px"
     inkscape:current-layer="layer1"
     showgrid="true"
     inkscape:window-width="1600"
     inkscape:window-height="838"
     inkscape:window-x="-8"
     inkscape:window-y="-8"
     inkscape:window-maximized="1">
    <inkscape:grid
       type="xygrid"
       id="grid3386"
       empspacing="5"
       visible="true"
       enabled="true"
       snapvisiblegridlinesonly="true" />
  </sodipodi:namedview>
  <metadata
     id="metadata3356">
    <rdf:RDF>
      <cc:Work
         rdf:about="">
        <dc:format>image/svg+xml</dc:format>
        <dc:type
           rdf:resource="http://purl.org/dc/dcmitype/StillImage" />
        <dc:title />
      </cc:Work>
    </rdf:RDF>
  </metadata>
  <g
     inkscape:label="Ebene 1"
     inkscape:groupmode="layer"
     id="layer1"
     transform="translate(0,-1012.3622)">
    <path
       inkscape:export-ydpi="112.5"
       inkscape:export-xdpi="112.5"
       inkscape:export-filename="C:\Users\Hanne Nobis\Dropbox\icons\icon-account-40.png"
       transform="matrix(1.4814815,0,0,1.4814815,-11.851856,996.06588)"
       d="M 35,24.5 C 35,31.955844 28.955844,38 21.5,38 14.044156,38 8,31.955844 8,24.5 8,17.044156 14.044156,11 21.5,11 28.955844,11 35,17.044156 35,24.5 z"
       sodipodi:ry="13.5"
       sodipodi:rx="13.5"
       sodipodi:cy="24.5"
       sodipodi:cx="21.5"
       id="path3962"
       style="fill:#a00000;fill-opacity:1;fill-rule:evenodd;stroke:none"
       sodipodi:type="arc" />
    <path
       transform="matrix(2.1842114,0,0,2.1842114,-9.4868554,998.95425)"
       d="M 16,11.5 C 16,12.880712 14.880712,14 13.5,14 12.119288,14 11,12.880712 11,11.5 11,10.119288 12.119288,9 13.5,9 14.880712,9 16,10.119288 16,11.5 z"
       sodipodi:ry="2.5"
       sodipodi:rx="2.5"
       sodipodi:cy="11.5"
       sodipodi:cx="13.5"
       id="path3964"
       style="fill:#ffffff;fill-opacity:1;stroke:none"
       sodipodi:type="arc"
       inkscape:export-filename="C:\Users\Hanne Nobis\Dropbox\icons\icon-account-40.png"
       inkscape:export-xdpi="112"
       inkscape:export-ydpi="112" />
    <path
       sodipodi:nodetypes="zczcczcz"
       inkscape:connector-curvature="0"
       id="path3966"
       d="m 19.872645,1031.0933 c 4.680376,0 6.240504,-3.1203 6.240504,-3.1203 0,0 1.560248,0 3.120372,1.5601 1.560128,1.5602 1.420376,12.3603 1.420376,12.3603 l -21.25,0 c 0,0 -0.452376,-10.8001 1.107748,-12.3603 1.560128,-1.5601 3.120376,-1.5601 3.120376,-1.5601 0,0 1.560124,3.1203 6.240624,3.1203 z"
       style="fill:#ffffff;fill-opacity:1;stroke:none"
       inkscape:export-filename="C:\Users\Hanne Nobis\Dropbox\icons\icon-account-40.png"
       inkscape:export-xdpi="112"
       inkscape:export-ydpi="112" />
  </g>
</svg>
