<?xml version="1.0" encoding="UTF-8" standalone="no"?>
<!-- Created with Inkscape (http://www.inkscape.org/) -->

<svg
   xmlns:dc="http://purl.org/dc/elements/1.1/"
   xmlns:cc="http://creativecommons.org/ns#"
   xmlns:rdf="http://www.w3.org/1999/02/22-rdf-syntax-ns#"
   xmlns:svg="http://www.w3.org/2000/svg"
   xmlns="http://www.w3.org/2000/svg"
   xmlns:sodipodi="http://sodipodi.sourceforge.net/DTD/sodipodi-0.dtd"
   xmlns:inkscape="http://www.inkscape.org/namespaces/inkscape"
   width="1000"
   height="1000"
   id="svg3351"
   version="1.1"
   inkscape:version="0.48.2 r9819"
   sodipodi:docname="devices-icon.svg">
  <defs
     id="defs3353" />
  <sodipodi:namedview
     id="base"
     pagecolor="#ffffff"
     bordercolor="#666666"
     borderopacity="1.0"
     inkscape:pageopacity="0.0"
     inkscape:pageshadow="2"
     inkscape:zoom="0.7"
     inkscape:cx="497.25348"
     inkscape:cy="538.8905"
     inkscape:document-units="px"
     inkscape:current-layer="layer1"
     showgrid="true"
     inkscape:window-width="1920"
     inkscape:window-height="1018"
     inkscape:window-x="1592"
     inkscape:window-y="-8"
     inkscape:window-maximized="1">
    <inkscape:grid
       type="xygrid"
       id="grid3386"
       empspacing="5"
       visible="true"
       enabled="true"
       snapvisiblegridlinesonly="true" />
  </sodipodi:namedview>
  <metadata
     id="metadata3356">
    <rdf:RDF>
      <cc:Work
         rdf:about="">
        <dc:format>image/svg+xml</dc:format>
        <dc:type
           rdf:resource="http://purl.org/dc/dcmitype/StillImage" />
        <dc:title></dc:title>
      </cc:Work>
    </rdf:RDF>
  </metadata>
  <g
     inkscape:label="Ebene 1"
     inkscape:groupmode="layer"
     id="layer1"
     transform="translate(0,-52.36218)">
    <path
       inkscape:export-ydpi="112.5"
       inkscape:export-xdpi="112.5"
       inkscape:export-filename="C:\Users\Hanne Nobis\Dropbox\icons\icon-account-40.png"
       transform="matrix(37.037037,0,0,37.037037,-296.2963,-355.04523)"
       d="m 35,24.5 a 13.5,13.5 0 1 1 -27,0 13.5,13.5 0 1 1 27,0 z"
       sodipodi:ry="13.5"
       sodipodi:rx="13.5"
       sodipodi:cy="24.5"
       sodipodi:cx="21.5"
       id="path3962"
       style="fill:#a00000;fill-opacity:1;fill-rule:evenodd;stroke:none"
       sodipodi:type="arc" />
    <path
       transform="matrix(54.605285,0,0,54.605285,-237.17129,-282.83593)"
       d="m 16,11.5 a 2.5,2.5 0 1 1 -5,0 2.5,2.5 0 1 1 5,0 z"
       sodipodi:ry="2.5"
       sodipodi:rx="2.5"
       sodipodi:cy="11.5"
       sodipodi:cx="13.5"
       id="path3964"
       style="fill:#ffffff;fill-opacity:1;stroke:none"
       sodipodi:type="arc"
       inkscape:export-filename="C:\Users\Hanne Nobis\Dropbox\icons\icon-account-40.png"
       inkscape:export-xdpi="112"
       inkscape:export-ydpi="112" />
    <path
       sodipodi:nodetypes="zczcczcz"
       inkscape:connector-curvature="0"
       id="path3966"
       d="m 496.81622,520.63917 c 117.0094,0 156.0126,-78.00625 156.0126,-78.00625 0,0 39.0062,0 78.0093,39.00313 39.0032,39.00312 35.5094,309.00627 35.5094,309.00627 l -531.25,0 c 0,0 -11.3094,-270.00315 27.6937,-309.00627 39.0032,-39.00313 78.0094,-39.00313 78.0094,-39.00313 0,0 39.0031,78.00625 156.0156,78.00625 z"
       style="fill:#ffffff;fill-opacity:1;stroke:none"
       inkscape:export-filename="C:\Users\Hanne Nobis\Dropbox\icons\icon-account-40.png"
       inkscape:export-xdpi="112"
       inkscape:export-ydpi="112" />
  </g>
</svg>
