<?xml version="1.0" encoding="UTF-8" standalone="no"?>
<!-- Created with Inkscape (http://www.inkscape.org/) -->

<svg
   xmlns:dc="http://purl.org/dc/elements/1.1/"
   xmlns:cc="http://creativecommons.org/ns#"
   xmlns:rdf="http://www.w3.org/1999/02/22-rdf-syntax-ns#"
   xmlns:svg="http://www.w3.org/2000/svg"
   xmlns="http://www.w3.org/2000/svg"
   xmlns:sodipodi="http://sodipodi.sourceforge.net/DTD/sodipodi-0.dtd"
   xmlns:inkscape="http://www.inkscape.org/namespaces/inkscape"
   width="1000"
   height="1000"
   id="svg3351"
   version="1.1"
   inkscape:version="0.48.2 r9819"
   sodipodi:docname="party-icon.svg">
  <defs
     id="defs3353" />
  <sodipodi:namedview
     id="base"
     pagecolor="#ffffff"
     bordercolor="#666666"
     borderopacity="1.0"
     inkscape:pageopacity="0.0"
     inkscape:pageshadow="2"
     inkscape:zoom="0.49497475"
     inkscape:cx="531.55922"
     inkscape:cy="446.82116"
     inkscape:document-units="px"
     inkscape:current-layer="layer1"
     showgrid="true"
     inkscape:window-width="1920"
     inkscape:window-height="1018"
     inkscape:window-x="1592"
     inkscape:window-y="-8"
     inkscape:window-maximized="1"
     showguides="true"
     inkscape:guide-bbox="true">
    <inkscape:grid
       type="xygrid"
       id="grid3386"
       empspacing="5"
       visible="true"
       enabled="true"
       snapvisiblegridlinesonly="true" />
  </sodipodi:namedview>
  <metadata
     id="metadata3356">
    <rdf:RDF>
      <cc:Work
         rdf:about="">
        <dc:format>image/svg+xml</dc:format>
        <dc:type
           rdf:resource="http://purl.org/dc/dcmitype/StillImage" />
        <dc:title></dc:title>
      </cc:Work>
    </rdf:RDF>
  </metadata>
  <g
     inkscape:label="Ebene 1"
     inkscape:groupmode="layer"
     id="layer1"
     transform="translate(0,-52.36218)">
    <flowRoot
       xml:space="preserve"
       id="flowRoot3881"
       style="fill:black;stroke:none;stroke-opacity:1;stroke-width:1px;stroke-linejoin:miter;stroke-linecap:butt;fill-opacity:1;font-family:Sans;font-style:normal;font-weight:normal;font-size:40px;line-height:125%;letter-spacing:0px;word-spacing:0px"><flowRegion
         id="flowRegion3883"><rect
           id="rect3885"
           width="722.85712"
           height="257.14285"
           x="522.85712"
           y="682.85712" /></flowRegion><flowPara
         id="flowPara3887"></flowPara></flowRoot>    <path
       transform="matrix(37.037037,0,0,37.037037,-296.2963,-355.04523)"
       d="m 35,24.5 a 13.5,13.5 0 1 1 -27,0 13.5,13.5 0 1 1 27,0 z"
       sodipodi:ry="13.5"
       sodipodi:rx="13.5"
       sodipodi:cy="24.5"
       sodipodi:cx="21.5"
       id="path3789-1"
       style="fill:#a00000;fill-opacity:1;fill-rule:evenodd;stroke:none"
       sodipodi:type="arc"
       inkscape:export-filename="C:\Users\Hanne Nobis\Dropbox\icons\icon-party-32.png"
       inkscape:export-xdpi="90"
       inkscape:export-ydpi="90" />
    <g
       transform="matrix(3.0786019,0,0,3.0786019,1682.205,829.66823)"
       id="g5011">
      <path
         transform="matrix(0.6,0,0,0.6,-371.2,457.1338)"
         d="m -48,-912 c 0,44.18278 -35.81722,80 -80,80 -44.18278,0 -80,-35.81722 -80,-80 0,-44.18278 35.81722,-80 80,-80 44.18278,0 80,35.81722 80,80 z"
         sodipodi:ry="80"
         sodipodi:rx="80"
         sodipodi:cy="-912"
         sodipodi:cx="-128"
         id="path4971"
         style="fill:#ffffff;fill-opacity:1;fill-rule:evenodd;stroke:none"
         sodipodi:type="arc" />
      <path
         id="path4973"
         d="m -473.8,-46.08377 0,16.575 c 0,14.2932 11.5068,25.8 25.8,25.8 14.2932,0 25.8,-11.5068 25.8,-25.8 l 0,-16.575 c -7.57068,4.450506 -16.38306,7.0125 -25.8,7.0125 -9.41694,0 -18.22932,-2.561994 -25.8,-7.0125 z"
         style="fill:#ffffff;fill-opacity:1;stroke:none"
         inkscape:connector-curvature="0" />
      <path
         sodipodi:type="arc"
         style="fill:#ffffff;fill-opacity:1;fill-rule:evenodd;stroke:none"
         id="path4977"
         sodipodi:cx="-128"
         sodipodi:cy="-912"
         sodipodi:rx="80"
         sodipodi:ry="80"
         d="m -48,-912 c 0,44.18278 -35.81722,80 -80,80 -44.18278,0 -80,-35.81722 -80,-80 0,-44.18278 35.81722,-80 80,-80 44.18278,0 80,35.81722 80,80 z"
         transform="matrix(0.6,0,0,0.6,-243.2,457.1338)" />
      <path
         inkscape:connector-curvature="0"
         style="fill:#ffffff;fill-opacity:1;stroke:none"
         d="m -345.8,-46.08377 0,16.575 c 0,14.2932 11.5068,25.8 25.8,25.8 14.2932,0 25.8,-11.5068 25.8,-25.8 l 0,-16.575 c -7.57068,4.450506 -16.38306,7.0125 -25.8,7.0125 -9.41694,0 -18.22932,-2.561994 -25.8,-7.0125 z"
         id="path4979" />
      <path
         inkscape:connector-curvature="0"
         style="fill:#ffffff;fill-opacity:1;fill-rule:evenodd;stroke:none"
         d="m -384,-992 c -26.50967,0 -48,21.49033 -48,48 0,3.23776 0.32637,6.41074 0.9375,9.46875 16.22407,5.71539 28.68749,19.38628 32.6875,36.34375 4.53673,1.42149 9.36948,2.1875 14.375,2.1875 5.00552,0 9.83827,-0.76601 14.375,-2.1875 4.00001,-16.95747 16.46343,-30.62836 32.6875,-36.34375 0.61113,-3.05801 0.9375,-6.23099 0.9375,-9.46875 0,-26.50967 -21.49033,-48 -48,-48 z m -13.71875,97.125 c 0.45875,2.74982 0.71875,5.55746 0.71875,8.4375 0,7.74798 -1.72125,15.11086 -4.8125,21.6875 4.62624,4.39488 10.8972,7.09375 17.8125,7.09375 6.9153,0 13.18626,-2.69887 17.8125,-7.09375 -3.09125,-6.57664 -4.8125,-13.93952 -4.8125,-21.6875 0,-2.88004 0.26,-5.68768 0.71875,-8.4375 -4.36644,1.22361 -8.96547,1.875 -13.71875,1.875 -4.75328,0 -9.35231,-0.65139 -13.71875,-1.875 z"
         transform="translate(0,796.36218)"
         id="path4983" />
    </g>
  </g>
</svg>
