<?xml version="1.0" encoding="UTF-8" standalone="no"?>
<!-- Created with Inkscape (http://www.inkscape.org/) -->

<svg
   xmlns:dc="http://purl.org/dc/elements/1.1/"
   xmlns:cc="http://creativecommons.org/ns#"
   xmlns:rdf="http://www.w3.org/1999/02/22-rdf-syntax-ns#"
   xmlns:svg="http://www.w3.org/2000/svg"
   xmlns="http://www.w3.org/2000/svg"
   xmlns:sodipodi="http://sodipodi.sourceforge.net/DTD/sodipodi-0.dtd"
   xmlns:inkscape="http://www.inkscape.org/namespaces/inkscape"
   width="40"
   height="40"
   id="svg4707"
   version="1.1"
   inkscape:version="0.48.2 r9819"
   sodipodi:docname="automation-dark-icon.svg">
  <defs
     id="defs4709" />
  <sodipodi:namedview
     id="base"
     pagecolor="#ffffff"
     bordercolor="#666666"
     borderopacity="1.0"
     inkscape:pageopacity="0.0"
     inkscape:pageshadow="2"
     inkscape:zoom="5.6"
     inkscape:cx="44.732143"
     inkscape:cy="5.7142861"
     inkscape:document-units="px"
     inkscape:current-layer="layer1"
     showgrid="false"
     inkscape:window-width="1600"
     inkscape:window-height="838"
     inkscape:window-x="-8"
     inkscape:window-y="-8"
     inkscape:window-maximized="1" />
  <metadata
     id="metadata4712">
    <rdf:RDF>
      <cc:Work
         rdf:about="">
        <dc:format>image/svg+xml</dc:format>
        <dc:type
           rdf:resource="http://purl.org/dc/dcmitype/StillImage" />
        <dc:title></dc:title>
      </cc:Work>
    </rdf:RDF>
  </metadata>
  <g
     inkscape:label="Ebene 1"
     inkscape:groupmode="layer"
     id="layer1"
     transform="translate(0,-1012.3622)">
    <path
       inkscape:export-ydpi="112.5"
       inkscape:export-xdpi="112.5"
       inkscape:export-filename="C:\Users\Hanne Nobis\Dropbox\icons\icon-light-transparent-40.png"
       transform="matrix(1.4328973,0,0,1.4328973,-10.807292,997.25622)"
       d="m 35,24.5 a 13.5,13.5 0 1 1 -27,0 13.5,13.5 0 1 1 27,0 z"
       sodipodi:ry="13.5"
       sodipodi:rx="13.5"
       sodipodi:cy="24.5"
       sodipodi:cx="21.5"
       id="path3233"
       style="fill:#800000;fill-opacity:1;fill-rule:evenodd;stroke:#ffffff;stroke-width:0.91546881;stroke-miterlimit:4;stroke-opacity:1;stroke-dasharray:none"
       sodipodi:type="arc" />
    <g
       inkscape:export-ydpi="112"
       inkscape:export-xdpi="112"
       inkscape:export-filename="C:\Users\Hanne Nobis\Dropbox\icons\icon-light-transparent-40.png"
       id="g3235"
       transform="matrix(0.12696246,0,0,0.12696246,-126.26078,1045.0079)"
       style="fill:#ffffff;fill-opacity:1">
      <path
         transform="translate(1280,780.43313)"
         d="m -48,-912 c 0,44.18278 -35.81722,80 -80,80 -44.18278,0 -80,-35.81722 -80,-80 0,-44.18278 35.81722,-80 80,-80 44.18278,0 80,35.81722 80,80 z"
         sodipodi:ry="80"
         sodipodi:rx="80"
         sodipodi:cy="-912"
         sodipodi:cx="-128"
         id="path3237"
         style="fill:#ffffff;fill-opacity:1;fill-rule:evenodd;stroke:none"
         sodipodi:type="arc" />
      <path
         id="path3239"
         transform="translate(0,796.36218)"
         d="m 1109,-854.625 0,27.625 c 0,23.822 19.178,43 43,43 23.822,0 43,-19.178 43,-43 l 0,-27.625 c -12.6178,7.41751 -27.3051,11.6875 -43,11.6875 -15.6949,0 -30.3822,-4.26999 -43,-11.6875 z"
         style="fill:#ffffff;fill-opacity:1;stroke:none"
         inkscape:connector-curvature="0" />
    </g>
  </g>
</svg>
