<?xml version="1.0" encoding="UTF-8" standalone="no"?>
<!-- Created with Inkscape (http://www.inkscape.org/) -->

<svg
   xmlns:dc="http://purl.org/dc/elements/1.1/"
   xmlns:cc="http://creativecommons.org/ns#"
   xmlns:rdf="http://www.w3.org/1999/02/22-rdf-syntax-ns#"
   xmlns:svg="http://www.w3.org/2000/svg"
   xmlns="http://www.w3.org/2000/svg"
   xmlns:sodipodi="http://sodipodi.sourceforge.net/DTD/sodipodi-0.dtd"
   xmlns:inkscape="http://www.inkscape.org/namespaces/inkscape"
   width="40"
   height="40"
   id="svg3351"
   version="1.1"
   inkscape:version="0.48.2 r9819"
   sodipodi:docname="motion-icon.svg">
  <defs
     id="defs3353" />
  <sodipodi:namedview
     id="base"
     pagecolor="#ffffff"
     bordercolor="#666666"
     borderopacity="1.0"
     inkscape:pageopacity="0.0"
     inkscape:pageshadow="2"
     inkscape:zoom="3.959798"
     inkscape:cx="149.71832"
     inkscape:cy="35.126782"
     inkscape:document-units="px"
     inkscape:current-layer="layer1"
     showgrid="true"
     inkscape:window-width="779"
     inkscape:window-height="487"
     inkscape:window-x="1550"
     inkscape:window-y="167"
     inkscape:window-maximized="0">
    <inkscape:grid
       type="xygrid"
       id="grid3386"
       empspacing="5"
       visible="true"
       enabled="true"
       snapvisiblegridlinesonly="true" />
  </sodipodi:namedview>
  <metadata
     id="metadata3356">
    <rdf:RDF>
      <cc:Work
         rdf:about="">
        <dc:format>image/svg+xml</dc:format>
        <dc:type
           rdf:resource="http://purl.org/dc/dcmitype/StillImage" />
        <dc:title />
      </cc:Work>
    </rdf:RDF>
  </metadata>
  <g
     inkscape:label="Ebene 1"
     inkscape:groupmode="layer"
     id="layer1"
     transform="translate(0,-1012.3622)">
    <path
       sodipodi:type="arc"
       style="fill:#a00000;fill-opacity:1;fill-rule:evenodd;stroke:none"
       id="path5462"
       sodipodi:cx="21.5"
       sodipodi:cy="24.5"
       sodipodi:rx="13.5"
       sodipodi:ry="13.5"
       d="M 35,24.5 C 35,31.955844 28.955844,38 21.5,38 14.044156,38 8,31.955844 8,24.5 8,17.044156 14.044156,11 21.5,11 28.955844,11 35,17.044156 35,24.5 z"
       transform="matrix(1.4814815,0,0,1.4814815,-11.851856,996.06588)"
       inkscape:export-filename="C:\Users\hnobis\Dropbox\Studienarbeit\Layout\icon-light-40.png"
       inkscape:export-xdpi="112.5"
       inkscape:export-ydpi="112.5" />
    <path
       sodipodi:type="arc"
       style="fill:#ffffff;fill-opacity:1;stroke:none"
       id="path5464"
       sodipodi:cx="13.5"
       sodipodi:cy="7"
       sodipodi:rx="0.5"
       sodipodi:ry="1"
       d="M 14,7 C 14,7.5522847 13.776142,8 13.5,8 13.223858,8 13,7.5522847 13,7 13,6.4477153 13.223858,6 13.5,6 13.776142,6 14,6.4477153 14,7 z"
       transform="matrix(2.5948738,0,0,1.9461553,-19.682098,1012.3621)" />
    <path
       transform="matrix(1.8494649,0,0,1.3870986,-15.181536,1018.2217)"
       d="M 14,7 C 14,7.5522847 13.776142,8 13.5,8 13.223858,8 13,7.5522847 13,7 13,6.4477153 13.223858,6 13.5,6 13.776142,6 14,6.4477153 14,7 z"
       sodipodi:ry="1"
       sodipodi:rx="0.5"
       sodipodi:cy="7"
       sodipodi:cx="13.5"
       id="path5474"
       style="fill:#ffffff;fill-opacity:1;stroke:none"
       sodipodi:type="arc" />
    <path
       sodipodi:type="arc"
       style="fill:#ffffff;fill-opacity:1;stroke:none"
       id="path5476"
       sodipodi:cx="13.5"
       sodipodi:cy="7"
       sodipodi:rx="0.5"
       sodipodi:ry="1"
       d="M 14,7 C 14,7.5522847 13.776142,8 13.5,8 13.223858,8 13,7.5522847 13,7 13,6.4477153 13.223858,6 13.5,6 13.776142,6 14,6.4477153 14,7 z"
       transform="matrix(1.2951864,0,0,0.9713898,-11.865975,1023.7265)" />
    <path
       transform="matrix(2.1934997,0,0,1.6451248,-17.059109,1015.118)"
       d="M 14,7 C 14,7.5522847 13.776142,8 13.5,8 13.223858,8 13,7.5522847 13,7 13,6.4477153 13.223858,6 13.5,6 13.776142,6 14,6.4477153 14,7 z"
       sodipodi:ry="1"
       sodipodi:rx="0.5"
       sodipodi:cy="7"
       sodipodi:cx="13.5"
       id="path5478"
       style="fill:#ffffff;fill-opacity:1;stroke:none"
       sodipodi:type="arc" />
    <path
       sodipodi:type="arc"
       style="fill:#ffffff;fill-opacity:1;stroke:none"
       id="path5480"
       sodipodi:cx="13.5"
       sodipodi:cy="7"
       sodipodi:rx="0.5"
       sodipodi:ry="1"
       d="M 14,7 C 14,7.5522847 13.776142,8 13.5,8 13.223858,8 13,7.5522847 13,7 13,6.4477153 13.223858,6 13.5,6 13.776142,6 14,6.4477153 14,7 z"
       transform="matrix(1.6774473,0,0,1.2580856,-15.081465,1020.3829)" />
    <path
       transform="matrix(2.5948738,0,0,1.9461553,-11.897477,1001.9826)"
       d="M 14,7 C 14,7.5522847 13.776142,8 13.5,8 13.223858,8 13,7.5522847 13,7 13,6.4477153 13.223858,6 13.5,6 13.776142,6 14,6.4477153 14,7 z"
       sodipodi:ry="1"
       sodipodi:rx="0.5"
       sodipodi:cy="7"
       sodipodi:cx="13.5"
       id="path5482"
       style="fill:#ffffff;fill-opacity:1;stroke:none"
       sodipodi:type="arc" />
    <path
       sodipodi:type="arc"
       style="fill:#ffffff;fill-opacity:1;stroke:none"
       id="path5484"
       sodipodi:cx="13.5"
       sodipodi:cy="7"
       sodipodi:rx="0.5"
       sodipodi:ry="1"
       d="M 14,7 C 14,7.5522847 13.776142,8 13.5,8 13.223858,8 13,7.5522847 13,7 13,6.4477153 13.223858,6 13.5,6 13.776142,6 14,6.4477153 14,7 z"
       transform="matrix(2.1934997,0,0,1.6451248,-3.6833647,1004.7385)" />
    <path
       sodipodi:type="arc"
       style="fill:#ffffff;fill-opacity:1;stroke:none"
       id="path5486"
       sodipodi:cx="13.5"
       sodipodi:cy="7"
       sodipodi:rx="0.5"
       sodipodi:ry="1"
       d="M 14,7 C 14,7.5522847 13.776142,8 13.5,8 13.223858,8 13,7.5522847 13,7 13,6.4477153 13.223858,6 13.5,6 13.776142,6 14,6.4477153 14,7 z"
       transform="matrix(1.8494649,0,0,1.3870986,3.7279974,1007.8422)" />
    <path
       transform="matrix(1.6774473,0,0,1.2580856,8.2723994,1010.0034)"
       d="M 14,7 C 14,7.5522847 13.776142,8 13.5,8 13.223858,8 13,7.5522847 13,7 13,6.4477153 13.223858,6 13.5,6 13.776142,6 14,6.4477153 14,7 z"
       sodipodi:ry="1"
       sodipodi:rx="0.5"
       sodipodi:cy="7"
       sodipodi:cx="13.5"
       id="path5488"
       style="fill:#ffffff;fill-opacity:1;stroke:none"
       sodipodi:type="arc" />
    <path
       transform="matrix(1.2951864,0,0,0.9713898,15.380199,1013.347)"
       d="M 14,7 C 14,7.5522847 13.776142,8 13.5,8 13.223858,8 13,7.5522847 13,7 13,6.4477153 13.223858,6 13.5,6 13.776142,6 14,6.4477153 14,7 z"
       sodipodi:ry="1"
       sodipodi:rx="0.5"
       sodipodi:cy="7"
       sodipodi:cx="13.5"
       id="path5490"
       style="fill:#ffffff;fill-opacity:1;stroke:none"
       sodipodi:type="arc" />
    <path
       style="fill:#ffffff;fill-opacity:1;stroke:none"
       d="m 21.835882,1018.8493 c 1.297437,-2.5949 8.410531,0.3499 10.379495,3.8923 1.968965,3.5424 -2.594874,12.9744 -2.594874,12.9744 0,0 -1.297436,2.5949 -3.89231,2.5949 -2.594874,0 -3.892311,-1.2975 -3.892311,-2.5949 0,-1.2974 0,-3.8923 3.892311,-6.4872 0.612312,-0.4082 2.594874,-3.8923 0,-5.1897 -2.594874,-1.2975 -5.189748,-2.5949 -3.892311,-5.1898 z"
       id="path5496"
       inkscape:connector-curvature="0"
       sodipodi:nodetypes="zzczzszz" />
    <path
       sodipodi:nodetypes="zzczzszz"
       inkscape:connector-curvature="0"
       id="path5504"
       d="m 16.646135,1029.2288 c -1.297438,-2.5949 -8.4105312,0.3499 -10.3794952,3.8923 -1.9689644,3.5424 2.5948736,12.9744 2.5948736,12.9744 0,0 1.2974366,2.5949 3.8923106,2.5949 2.594873,0 3.892311,-1.2975 3.892311,-2.5949 0,-1.2974 0,-3.8923 -3.892311,-6.4872 -0.612312,-0.4082 -2.594874,-3.8923 0,-5.1897 2.594873,-1.2975 5.189748,-2.5949 3.892311,-5.1898 z"
       style="fill:#ffffff;fill-opacity:1;stroke:none" />
  </g>
</svg>
