<?xml version="1.0" encoding="UTF-8" standalone="no"?>
<!-- Created with Inkscape (http://www.inkscape.org/) -->

<svg
   xmlns:dc="http://purl.org/dc/elements/1.1/"
   xmlns:cc="http://creativecommons.org/ns#"
   xmlns:rdf="http://www.w3.org/1999/02/22-rdf-syntax-ns#"
   xmlns:svg="http://www.w3.org/2000/svg"
   xmlns="http://www.w3.org/2000/svg"
   xmlns:sodipodi="http://sodipodi.sourceforge.net/DTD/sodipodi-0.dtd"
   xmlns:inkscape="http://www.inkscape.org/namespaces/inkscape"
   width="1000"
   height="1000"
   id="svg3351"
   version="1.1"
   inkscape:version="0.48.2 r9819"
   sodipodi:docname="light-icon.svg">
  <defs
     id="defs3353" />
  <sodipodi:namedview
     id="base"
     pagecolor="#ffffff"
     bordercolor="#666666"
     borderopacity="1.0"
     inkscape:pageopacity="0.0"
     inkscape:pageshadow="2"
     inkscape:zoom="0.49497475"
     inkscape:cx="149.71832"
     inkscape:cy="520"
     inkscape:document-units="px"
     inkscape:current-layer="layer1"
     showgrid="true"
     inkscape:window-width="779"
     inkscape:window-height="487"
     inkscape:window-x="2497"
     inkscape:window-y="167"
     inkscape:window-maximized="0">
    <inkscape:grid
       type="xygrid"
       id="grid3386"
       empspacing="5"
       visible="true"
       enabled="true"
       snapvisiblegridlinesonly="true" />
  </sodipodi:namedview>
  <metadata
     id="metadata3356">
    <rdf:RDF>
      <cc:Work
         rdf:about="">
        <dc:format>image/svg+xml</dc:format>
        <dc:type
           rdf:resource="http://purl.org/dc/dcmitype/StillImage" />
        <dc:title></dc:title>
      </cc:Work>
    </rdf:RDF>
  </metadata>
  <g
     inkscape:label="Ebene 1"
     inkscape:groupmode="layer"
     id="layer1"
     transform="translate(0,-52.36218)">
    <path
       sodipodi:type="arc"
       style="fill:#a00000;fill-opacity:1;fill-rule:evenodd;stroke:none"
       id="path5462"
       sodipodi:cx="21.5"
       sodipodi:cy="24.5"
       sodipodi:rx="13.5"
       sodipodi:ry="13.5"
       d="m 35,24.5 a 13.5,13.5 0 1 1 -27,0 13.5,13.5 0 1 1 27,0 z"
       transform="matrix(37.037037,0,0,37.037037,-296.2963,-355.04523)"
       inkscape:export-filename="C:\Users\hnobis\Dropbox\Studienarbeit\Layout\icon-light-40.png"
       inkscape:export-xdpi="112.5"
       inkscape:export-ydpi="112.5" />
    <path
       sodipodi:type="arc"
       style="fill:#ffffff;fill-opacity:1;stroke:none"
       id="path5464"
       sodipodi:cx="13.5"
       sodipodi:cy="7"
       sodipodi:rx="0.5"
       sodipodi:ry="1"
       d="m 14,7 a 0.5,1 0 1 1 -1,0 0.5,1 0 1 1 1,0 z"
       transform="matrix(64.871844,0,0,48.653883,-492.05235,52.361016)" />
    <path
       transform="matrix(46.236622,0,0,34.677465,-379.5383,198.85136)"
       d="m 14,7 a 0.5,1 0 1 1 -1,0 0.5,1 0 1 1 1,0 z"
       sodipodi:ry="1"
       sodipodi:rx="0.5"
       sodipodi:cy="7"
       sodipodi:cx="13.5"
       id="path5474"
       style="fill:#ffffff;fill-opacity:1;stroke:none"
       sodipodi:type="arc" />
    <path
       sodipodi:type="arc"
       style="fill:#ffffff;fill-opacity:1;stroke:none"
       id="path5476"
       sodipodi:cx="13.5"
       sodipodi:cy="7"
       sodipodi:rx="0.5"
       sodipodi:ry="1"
       d="m 14,7 a 0.5,1 0 1 1 -1,0 0.5,1 0 1 1 1,0 z"
       transform="matrix(32.37966,0,0,24.284745,-296.64928,336.4705)" />
    <path
       transform="matrix(54.837493,0,0,41.12812,-426.47763,121.25816)"
       d="m 14,7 a 0.5,1 0 1 1 -1,0 0.5,1 0 1 1 1,0 z"
       sodipodi:ry="1"
       sodipodi:rx="0.5"
       sodipodi:cy="7"
       sodipodi:cx="13.5"
       id="path5478"
       style="fill:#ffffff;fill-opacity:1;stroke:none"
       sodipodi:type="arc" />
    <path
       sodipodi:type="arc"
       style="fill:#ffffff;fill-opacity:1;stroke:none"
       id="path5480"
       sodipodi:cx="13.5"
       sodipodi:cy="7"
       sodipodi:rx="0.5"
       sodipodi:ry="1"
       d="m 14,7 a 0.5,1 0 1 1 -1,0 0.5,1 0 1 1 1,0 z"
       transform="matrix(41.936183,0,0,31.452139,-377.03652,252.87988)" />
    <path
       transform="matrix(64.871844,0,0,48.653883,-297.43682,-207.12636)"
       d="m 14,7 a 0.5,1 0 1 1 -1,0 0.5,1 0 1 1 1,0 z"
       sodipodi:ry="1"
       sodipodi:rx="0.5"
       sodipodi:cy="7"
       sodipodi:cx="13.5"
       id="path5482"
       style="fill:#ffffff;fill-opacity:1;stroke:none"
       sodipodi:type="arc" />
    <path
       sodipodi:type="arc"
       style="fill:#ffffff;fill-opacity:1;stroke:none"
       id="path5484"
       sodipodi:cx="13.5"
       sodipodi:cy="7"
       sodipodi:rx="0.5"
       sodipodi:ry="1"
       d="m 14,7 a 0.5,1 0 1 1 -1,0 0.5,1 0 1 1 1,0 z"
       transform="matrix(54.837493,0,0,41.12812,-92.084021,-138.22922)" />
    <path
       sodipodi:type="arc"
       style="fill:#ffffff;fill-opacity:1;stroke:none"
       id="path5486"
       sodipodi:cx="13.5"
       sodipodi:cy="7"
       sodipodi:rx="0.5"
       sodipodi:ry="1"
       d="m 14,7 a 0.5,1 0 1 1 -1,0 0.5,1 0 1 1 1,0 z"
       transform="matrix(46.236622,0,0,34.677465,93.20003,-60.635998)" />
    <path
       transform="matrix(41.936183,0,0,31.452139,206.81008,-6.607483)"
       d="m 14,7 a 0.5,1 0 1 1 -1,0 0.5,1 0 1 1 1,0 z"
       sodipodi:ry="1"
       sodipodi:rx="0.5"
       sodipodi:cy="7"
       sodipodi:cx="13.5"
       id="path5488"
       style="fill:#ffffff;fill-opacity:1;stroke:none"
       sodipodi:type="arc" />
    <path
       transform="matrix(32.37966,0,0,24.284745,384.50508,76.983122)"
       d="m 14,7 a 0.5,1 0 1 1 -1,0 0.5,1 0 1 1 1,0 z"
       sodipodi:ry="1"
       sodipodi:rx="0.5"
       sodipodi:cy="7"
       sodipodi:cx="13.5"
       id="path5490"
       style="fill:#ffffff;fill-opacity:1;stroke:none"
       sodipodi:type="arc" />
    <path
       style="fill:#ffffff;fill-opacity:1;stroke:none"
       d="m 545.89715,214.54063 c 32.43592,-64.87184 210.26327,8.74797 259.48738,97.30776 49.22411,88.5598 -64.87185,324.35922 -64.87185,324.35922 0,0 -32.43592,64.87184 -97.30776,64.87184 -64.87185,0 -97.30777,-32.43592 -97.30777,-64.87184 0,-32.43592 0,-97.30776 97.30777,-162.1796 15.30781,-10.20436 64.87184,-97.30778 0,-129.7437 -64.87185,-32.43592 -129.74369,-64.87184 -97.30777,-129.74368 z"
       id="path5496"
       inkscape:connector-curvature="0"
       sodipodi:nodetypes="zzczzszz" />
    <path
       sodipodi:nodetypes="zzczzszz"
       inkscape:connector-curvature="0"
       id="path5504"
       d="m 416.15347,474.02801 c -32.43594,-64.87186 -210.26328,8.74796 -259.48738,97.30776 -49.22411,88.55979 64.87184,324.35922 64.87184,324.35922 0,0 32.43592,64.87181 97.30776,64.87181 64.87184,0 97.30778,-32.43589 97.30778,-64.87181 0,-32.43592 0,-97.30776 -97.30778,-162.17962 -15.3078,-10.20434 -64.87184,-97.30776 0,-129.74368 64.87184,-32.43592 129.7437,-64.87184 97.30778,-129.74368 z"
       style="fill:#ffffff;fill-opacity:1;stroke:none" />
  </g>
</svg>
