<?xml version="1.0" encoding="UTF-8" standalone="no"?>
<!-- Created with Inkscape (http://www.inkscape.org/) -->

<svg
   xmlns:dc="http://purl.org/dc/elements/1.1/"
   xmlns:cc="http://creativecommons.org/ns#"
   xmlns:rdf="http://www.w3.org/1999/02/22-rdf-syntax-ns#"
   xmlns:svg="http://www.w3.org/2000/svg"
   xmlns="http://www.w3.org/2000/svg"
   xmlns:sodipodi="http://sodipodi.sourceforge.net/DTD/sodipodi-0.dtd"
   xmlns:inkscape="http://www.inkscape.org/namespaces/inkscape"
   width="1000"
   height="1000"
   id="svg3351"
   version="1.1"
   inkscape:version="0.48.2 r9819"
   sodipodi:docname="connections-icon.svg">
  <defs
     id="defs3353" />
  <sodipodi:namedview
     id="base"
     pagecolor="#ffffff"
     bordercolor="#666666"
     borderopacity="1.0"
     inkscape:pageopacity="0.0"
     inkscape:pageshadow="2"
     inkscape:zoom="0.49497475"
     inkscape:cx="531.55922"
     inkscape:cy="446.82116"
     inkscape:document-units="px"
     inkscape:current-layer="layer1"
     showgrid="true"
     inkscape:window-width="1920"
     inkscape:window-height="1018"
     inkscape:window-x="1592"
     inkscape:window-y="-8"
     inkscape:window-maximized="1"
     showguides="true"
     inkscape:guide-bbox="true">
    <inkscape:grid
       type="xygrid"
       id="grid3386"
       empspacing="5"
       visible="true"
       enabled="true"
       snapvisiblegridlinesonly="true" />
  </sodipodi:namedview>
  <metadata
     id="metadata3356">
    <rdf:RDF>
      <cc:Work
         rdf:about="">
        <dc:format>image/svg+xml</dc:format>
        <dc:type
           rdf:resource="http://purl.org/dc/dcmitype/StillImage" />
        <dc:title></dc:title>
      </cc:Work>
    </rdf:RDF>
  </metadata>
  <g
     inkscape:label="Ebene 1"
     inkscape:groupmode="layer"
     id="layer1"
     transform="translate(0,-52.36218)">
    <flowRoot
       xml:space="preserve"
       id="flowRoot3881"
       style="fill:black;stroke:none;stroke-opacity:1;stroke-width:1px;stroke-linejoin:miter;stroke-linecap:butt;fill-opacity:1;font-family:Sans;font-style:normal;font-weight:normal;font-size:40px;line-height:125%;letter-spacing:0px;word-spacing:0px"><flowRegion
         id="flowRegion3883"><rect
           id="rect3885"
           width="722.85712"
           height="257.14285"
           x="522.85712"
           y="682.85712" /></flowRegion><flowPara
         id="flowPara3887"></flowPara></flowRoot>    <path
       transform="matrix(37.037037,0,0,37.037037,-296.2963,-355.04523)"
       d="m 35,24.5 a 13.5,13.5 0 1 1 -27,0 13.5,13.5 0 1 1 27,0 z"
       sodipodi:ry="13.5"
       sodipodi:rx="13.5"
       sodipodi:cy="24.5"
       sodipodi:cx="21.5"
       id="path3789-1"
       style="fill:#a00000;fill-opacity:1;fill-rule:evenodd;stroke:none"
       sodipodi:type="arc"
       inkscape:export-filename="C:\Users\Hanne Nobis\Dropbox\icons\icon-party-32.png"
       inkscape:export-xdpi="90"
       inkscape:export-ydpi="90" />
    <g
       transform="matrix(3.1662237,0,0,3.1662237,93.053729,-8048.2437)"
       id="g4475"
       inkscape:export-filename="C:\Users\Hanne Nobis\Dropbox\icons\icon-party-32.png"
       inkscape:export-xdpi="90"
       inkscape:export-ydpi="90">
      <path
         sodipodi:nodetypes="czzcczzcczzzz"
         inkscape:connector-curvature="0"
         id="path4408"
         d="m 37.999427,2684.3622 c -3.48029,0 80.672543,52.7388 81.281223,54 0.60868,1.2611 0.88171,70.9271 0,71.9999 -0.88171,1.0728 -52.042942,18.0995 -45.281235,18 l 107.999965,0 c 7.15945,-0.099 -44.4869,-16.9653 -45.28124,-18 -0.79434,-1.0346 -0.7518,-71.1281 0,-71.9999 0.75181,-0.8719 84.94018,-54 81.28123,-54 -91.2656,1.2656 -91.30226,1.1933 -179.999943,0 z m 29.671865,9 c 0.140625,-0.7384 120.515558,-1.1251 120.656208,0 0.14065,1.1251 -58.72822,40.3593 -60.3281,40.3593 -1.59989,0 -60.468733,-39.621 -60.328108,-40.3593 z"
         style="fill:#ffffff;fill-opacity:1;stroke:none" />
      <path
         inkscape:connector-curvature="0"
         id="path4429"
         transform="translate(0,796.36218)"
         d="m 98.5,1808 c -6.767884,0.074 -13.902866,1.1616 -21.125,3.25 -5.708836,1.6507 -11.213892,3.8548 -16.40625,6.5 l -0.0625,-0.1562 -2.5,-4.3126 -8.65625,5 2.5,4.3126 0.0625,0.125 C 30.408054,1836.936 15.859609,1859.1402 17.125,1879.75 L 68.21875,1850.2812 87.125,1883 98.65625,1883 76.875,1845.2812 128,1815.8125 c -7.96715,-5.2927 -18.22019,-7.9363 -29.5,-7.8125 z"
         style="fill:#ffffff;fill-opacity:1;stroke:none" />
      <path
         inkscape:connector-curvature="0"
         id="path4452"
         transform="translate(0,796.36218)"
         d="m 184.9375,1840 a 5.0005,5.0005 0 0 0 -3.84375,2.5 l -23.375,40.5 11.53125,0 18.71875,-32.4062 46.03125,9.4374 a 5.0070748,5.0070748 0 1 0 2,-9.8124 l -49.5625,-10.125 a 5.0005,5.0005 0 0 0 -1.5,-0.094 z"
         style="font-size:medium;font-style:normal;font-variant:normal;font-weight:normal;font-stretch:normal;text-indent:0;text-align:start;text-decoration:none;line-height:normal;letter-spacing:normal;word-spacing:normal;text-transform:none;direction:ltr;block-progression:tb;writing-mode:lr-tb;text-anchor:start;baseline-shift:baseline;color:#000000;fill:#ffffff;fill-opacity:1;stroke:none;stroke-width:10;marker:none;visibility:visible;display:inline;overflow:visible;enable-background:accumulate;font-family:Sans;-inkscape-font-specification:Sans" />
    </g>
  </g>
</svg>
