<?xml version="1.0" encoding="UTF-8" standalone="no"?>
<!-- Created with Inkscape (http://www.inkscape.org/) -->

<svg
   xmlns:dc="http://purl.org/dc/elements/1.1/"
   xmlns:cc="http://creativecommons.org/ns#"
   xmlns:rdf="http://www.w3.org/1999/02/22-rdf-syntax-ns#"
   xmlns:svg="http://www.w3.org/2000/svg"
   xmlns="http://www.w3.org/2000/svg"
   xmlns:sodipodi="http://sodipodi.sourceforge.net/DTD/sodipodi-0.dtd"
   xmlns:inkscape="http://www.inkscape.org/namespaces/inkscape"
   width="40"
   height="40"
   id="svg5662"
   version="1.1"
   inkscape:version="0.48.2 r9819"
   sodipodi:docname="settings-icon.svg">
  <defs
     id="defs5664" />
  <sodipodi:namedview
     id="base"
     pagecolor="#ffffff"
     bordercolor="#666666"
     borderopacity="1.0"
     inkscape:pageopacity="0.0"
     inkscape:pageshadow="2"
     inkscape:zoom="3.959798"
     inkscape:cx="79.829346"
     inkscape:cy="51.022469"
     inkscape:document-units="px"
     inkscape:current-layer="layer1"
     showgrid="false"
     inkscape:window-width="1600"
     inkscape:window-height="838"
     inkscape:window-x="-8"
     inkscape:window-y="-8"
     inkscape:window-maximized="1" />
  <metadata
     id="metadata5667">
    <rdf:RDF>
      <cc:Work
         rdf:about="">
        <dc:format>image/svg+xml</dc:format>
        <dc:type
           rdf:resource="http://purl.org/dc/dcmitype/StillImage" />
        <dc:title></dc:title>
      </cc:Work>
    </rdf:RDF>
  </metadata>
  <g
     inkscape:label="Ebene 1"
     inkscape:groupmode="layer"
     id="layer1"
     transform="translate(0,-1012.3622)">
    <path
       inkscape:export-ydpi="112.5"
       inkscape:export-xdpi="112.5"
       inkscape:export-filename="C:\Users\Hanne Nobis\Dropbox\icons\icon-settings-dark-40.png"
       sodipodi:type="arc"
       style="fill:#800000;fill-opacity:1;fill-rule:evenodd;stroke:#ffffff;stroke-width:0.99984384;stroke-miterlimit:4;stroke-opacity:1;stroke-dasharray:none"
       id="path4654"
       sodipodi:cx="21.5"
       sodipodi:cy="24.5"
       sodipodi:rx="13.5"
       sodipodi:ry="13.5"
       d="m 35,24.5 a 13.5,13.5 0 1 1 -27,0 13.5,13.5 0 1 1 27,0 z"
       transform="matrix(1.4285794,0,0,1.4285794,-10.714457,997.362)" />
    <g
       inkscape:export-ydpi="112"
       inkscape:export-xdpi="112"
       inkscape:export-filename="C:\Users\Hanne Nobis\Dropbox\icons\icon-settings-dark-40.png"
       id="g4656"
       transform="matrix(0.13472997,0,0,0.13472997,0.70752313,700.34932)">
      <path
         style="fill:#ffffff;fill-opacity:1;stroke:none"
         d="m 122.6134,2467.5449 c -2.8979,-3.0524 -7.66271,-3.1763 -10.7152,-0.2782 l -8.31273,7.8919 c -3.982689,-1.9749 -8.246601,-3.2055 -12.580491,-3.7072 l -2.695238,-11.1357 c -0.983586,-4.0921 -5.05793,-6.6085 -9.150312,-5.625 l -10.816291,2.5979 c -4.092453,0.9834 -6.60866,5.0577 -5.625287,9.1502 l 2.668263,11.1613 c -1.793124,1.1974 -3.507477,2.5577 -5.124215,4.0926 -1.616737,1.5348 -3.064045,3.1763 -4.353007,4.905 l -11.007825,-3.2438 c -4.035992,-1.1945 -8.235422,1.1069 -9.429911,5.1427 l -3.155626,10.667 c -1.19456,4.0359 1.10696,8.2353 5.14274,9.4299 l 10.98099,3.2693 c 0.275996,4.3542 1.283521,8.6762 3.049179,12.7561 l -8.312658,7.8919 c -3.052549,2.8981 -3.176152,7.6629 -0.27826,10.7153 l 7.660666,8.069 c 2.89789,3.0524 7.662722,3.1763 10.715272,0.2782 l 8.312657,-7.892 c 3.982756,1.9751 8.246671,3.2056 12.580631,3.7071 l 2.695096,11.1358 c 0.983581,4.0922 5.057999,6.6084 9.150312,5.6251 l 10.816285,-2.5978 c 4.09246,-0.9835 6.60866,-5.0578 5.62528,-9.1503 l -2.66826,-11.1613 c 1.7932,-1.1975 3.50749,-2.5577 5.12422,-4.0927 1.61674,-1.5348 3.06413,-3.1763 4.35301,-4.9049 l 11.00782,3.2439 c 4.036,1.1944 8.2355,-1.1072 9.42991,-5.1428 l 3.15563,-10.667 c 1.19456,-4.0358 -1.10696,-8.2354 -5.14274,-9.4299 l -10.98085,-3.2695 c -0.27607,-4.3541 -1.28358,-8.676 -3.04931,-12.7559 l 8.31273,-7.8919 c 3.05247,-2.898 3.17608,-7.6628 0.27819,-10.7153 l -7.66067,-8.069 z m -22.16394,28.7131 c 7.26914,7.6567 6.95498,19.7565 -0.701715,27.0258 -7.656716,7.2689 -19.756397,6.9549 -27.025539,-0.702 -7.269143,-7.6566 -6.95507,-19.7562 0.70164,-27.0255 7.656711,-7.269 19.756465,-6.9549 27.025614,0.7017 z"
         id="path4658"
         inkscape:connector-curvature="0" />
      <path
         inkscape:connector-curvature="0"
         id="path4660"
         d="m 177.40722,2474.773 c -3.26601,0.2509 -5.68055,3.0671 -5.42967,6.3332 l 0.68321,8.8946 c -3.14821,1.4349 -5.98494,3.4052 -8.41597,5.7757 l -8.0472,-3.8408 c -2.95389,-1.4157 -6.47395,-0.1912 -7.88969,2.7627 l -3.74276,7.8063 c -1.41574,2.954 -0.19124,6.4741 2.76266,7.8898 l 8.04942,3.8698 c -0.15749,1.6706 -0.17801,3.3737 -0.0451,5.1036 0.13288,1.7299 0.41325,3.4097 0.82404,5.0368 l -7.36399,5.0537 c -2.70302,1.8504 -3.37556,5.5161 -1.52528,8.2192 l 4.89106,7.1431 c 1.85027,2.7032 5.51604,3.3757 8.21907,1.5254 l 7.36621,-5.0248 c 2.76454,1.9715 5.86891,3.4855 9.19934,4.4228 l 0.68321,8.8945 c 0.25088,3.2661 3.06719,5.6805 6.3332,5.4297 l 8.63384,-0.6632 c 3.26601,-0.2509 5.68054,-3.0671 5.42965,-6.3333 l -0.6832,-8.8945 c 3.14822,-1.4349 5.98495,-3.4052 8.41597,-5.7758 l 8.0472,3.8409 c 2.95389,1.4157 6.47394,0.1912 7.88968,-2.7628 l 3.74277,-7.8062 c 1.41573,-2.9541 0.19123,-6.4741 -2.76267,-7.8899 l -8.04941,-3.8697 c 0.15748,-1.6708 0.178,-3.3738 0.0451,-5.1037 -0.13288,-1.7299 -0.41325,-3.4098 -0.82403,-5.0367 l 7.36398,-5.0538 c 2.70301,-1.8504 3.37557,-5.516 1.52529,-8.2191 l -4.89107,-7.1432 c -1.85028,-2.7033 -5.51603,-3.3756 -8.21906,-1.5253 l -7.3662,5.0247 c -2.76454,-1.9714 -5.86891,-3.4854 -9.19935,-4.4227 l -0.68322,-8.8946 c -0.25087,-3.266 -3.06717,-5.6804 -6.33318,-5.4296 l -8.63384,0.6632 z m 6.45335,27.4821 c 8.19257,-0.6293 15.3441,5.5019 15.97339,13.6945 0.6293,8.1926 -5.50196,15.3441 -13.69453,15.9734 -8.19257,0.6293 -15.34409,-5.5019 -15.97339,-13.6946 -0.62929,-8.1925 5.50196,-15.344 13.69453,-15.9733 z"
         style="fill:#ffffff;fill-opacity:1;stroke:none" />
      <path
         inkscape:connector-curvature="0"
         id="path4662"
         d="m 166.89903,2356.5333 c -4.80854,-0.9487 -9.41885,2.1421 -10.36758,6.9508 l -2.58363,13.0954 c -5.11373,0.8052 -9.99328,2.5073 -14.44858,4.949 l -10.0589,-8.7649 c -3.68999,-3.2257 -9.2553,-2.8729 -12.48114,0.8169 l -8.527,9.7514 c -3.22587,3.6899 -2.87301,9.2553 0.81694,12.4811 l 10.05051,8.8075 c -0.8973,2.3451 -1.61012,4.7918 -2.11261,7.3387 -0.50249,2.5469 -0.77232,5.0809 -0.83294,7.5911 l -12.64251,4.3303 c -4.638678,1.5828 -7.078818,6.5971 -5.496118,11.2356 l 4.184458,12.2592 c 1.58267,4.6387 6.59698,7.0787 11.23561,5.4962 l 12.63411,-4.2878 c 3.19411,3.9507 7.06156,7.3786 11.48624,10.0658 l -2.58361,13.0953 c -0.94875,4.8088 2.14221,9.419 6.95075,10.3677 l 12.71148,2.5079 c 4.80853,0.9487 9.41885,-2.1421 10.3676,-6.9509 l 2.58361,-13.0953 c 5.11377,-0.8054 9.99332,-2.5075 14.44861,-4.9491 l 10.05887,8.765 c 3.68999,3.2257 9.25529,2.8729 12.48114,-0.8169 l 8.52701,-9.7514 c 3.22587,-3.6899 2.87301,-9.2553 -0.81696,-12.4811 l -10.05049,-8.8075 c 0.8973,-2.3452 1.61012,-4.7918 2.11261,-7.3387 0.50249,-2.5469 0.77233,-5.081 0.83294,-7.5911 l 12.64249,-4.3303 c 4.6387,-1.5828 7.07884,-6.5971 5.49614,-11.2356 l -4.18447,-12.2592 c -1.58268,-4.6387 -6.59697,-7.0788 -11.23561,-5.4962 l -12.63408,4.2877 c -3.1941,-3.9508 -7.06155,-7.3787 -11.48627,-10.0657 l 2.58363,-13.0954 c 0.94873,-4.8087 -2.14224,-9.4189 -6.95077,-10.3676 l -12.71148,-2.5079 z m -1.72338,42.2037 c 12.06182,2.3797 19.91073,14.0869 17.53099,26.1488 -2.37973,12.0619 -14.0869,19.9106 -26.14872,17.5309 -12.06183,-2.3797 -19.91076,-14.0868 -17.53102,-26.1487 2.37973,-12.0619 14.08692,-19.9107 26.14875,-17.531 z"
         style="fill:#ffffff;fill-opacity:1;stroke:none" />
    </g>
  </g>
</svg>
