<?xml version="1.0" encoding="UTF-8" standalone="no"?>
<!-- Created with Inkscape (http://www.inkscape.org/) -->

<svg
   xmlns:dc="http://purl.org/dc/elements/1.1/"
   xmlns:cc="http://creativecommons.org/ns#"
   xmlns:rdf="http://www.w3.org/1999/02/22-rdf-syntax-ns#"
   xmlns:svg="http://www.w3.org/2000/svg"
   xmlns="http://www.w3.org/2000/svg"
   xmlns:sodipodi="http://sodipodi.sourceforge.net/DTD/sodipodi-0.dtd"
   xmlns:inkscape="http://www.inkscape.org/namespaces/inkscape"
   width="40"
   height="40"
   id="svg5662"
   version="1.1"
   inkscape:version="0.48.2 r9819"
   sodipodi:docname="settings-dark-icon.svg">
  <defs
     id="defs5664" />
  <sodipodi:namedview
     id="base"
     pagecolor="#ffffff"
     bordercolor="#666666"
     borderopacity="1.0"
     inkscape:pageopacity="0.0"
     inkscape:pageshadow="2"
     inkscape:zoom="3.959798"
     inkscape:cx="79.829346"
     inkscape:cy="51.022469"
     inkscape:document-units="px"
     inkscape:current-layer="layer1"
     showgrid="false"
     inkscape:window-width="1600"
     inkscape:window-height="838"
     inkscape:window-x="-8"
     inkscape:window-y="-8"
     inkscape:window-maximized="1" />
  <metadata
     id="metadata5667">
    <rdf:RDF>
      <cc:Work
         rdf:about="">
        <dc:format>image/svg+xml</dc:format>
        <dc:type
           rdf:resource="http://purl.org/dc/dcmitype/StillImage" />
        <dc:title></dc:title>
      </cc:Work>
    </rdf:RDF>
  </metadata>
  <g
     inkscape:label="Ebene 1"
     inkscape:groupmode="layer"
     id="layer1"
     transform="translate(0,-1012.3622)">
    <path
       inkscape:export-ydpi="112.50001"
       inkscape:export-xdpi="112.50001"
       inkscape:export-filename="C:\Users\Hanne Nobis\Dropbox\icons\icon-speech-40.png"
       transform="matrix(1.4814815,0,0,1.4814815,-11.851852,996.0659)"
       d="m 35,24.5 a 13.5,13.5 0 1 1 -27,0 13.5,13.5 0 1 1 27,0 z"
       sodipodi:ry="13.5"
       sodipodi:rx="13.5"
       sodipodi:cy="24.5"
       sodipodi:cx="21.5"
       id="path4678"
       style="fill:#a00000;fill-opacity:1;fill-rule:evenodd;stroke:none"
       sodipodi:type="arc" />
    <path
       inkscape:export-ydpi="112.50001"
       inkscape:export-xdpi="112.50001"
       inkscape:export-filename="C:\Users\Hanne Nobis\Dropbox\icons\icon-speech-40.png"
       sodipodi:type="arc"
       style="fill:#ffffff;fill-opacity:1;stroke:none"
       id="path4680"
       sodipodi:cx="13.5"
       sodipodi:cy="9.5"
       sodipodi:rx="2.5"
       sodipodi:ry="2.5"
       d="m 16,9.5 a 2.5,2.5 0 1 1 -5,0 2.5,2.5 0 1 1 5,0 z"
       transform="matrix(1.5000001,0,0,1.5000001,-0.2500022,1008.1121)" />
    <path
       inkscape:export-ydpi="112.50001"
       inkscape:export-xdpi="112.50001"
       inkscape:export-filename="C:\Users\Hanne Nobis\Dropbox\icons\icon-speech-40.png"
       transform="matrix(1.5000001,0,0,1.5000001,-0.2500022,1014.3622)"
       d="m 16,9.5 a 2.5,2.5 0 1 1 -5,0 2.5,2.5 0 1 1 5,0 z"
       sodipodi:ry="2.5"
       sodipodi:rx="2.5"
       sodipodi:cy="9.5"
       sodipodi:cx="13.5"
       id="path4682"
       style="fill:#ffffff;fill-opacity:1;stroke:none"
       sodipodi:type="arc" />
    <path
       inkscape:export-ydpi="112.50001"
       inkscape:export-xdpi="112.50001"
       inkscape:export-filename="C:\Users\Hanne Nobis\Dropbox\icons\icon-speech-40.png"
       style="fill:#ffffff;fill-opacity:1;stroke:none"
       d="m 23.749998,1022.3622 0,6.2501 -7.499999,0 0,-6.2501 z"
       id="path4684"
       inkscape:connector-curvature="0" />
    <path
       inkscape:export-ydpi="112.50001"
       inkscape:export-xdpi="112.50001"
       inkscape:export-filename="C:\Users\Hanne Nobis\Dropbox\icons\icon-speech-40.png"
       style="fill:#ffffff;fill-opacity:1;stroke:none"
       d="m 14.999999,1027.3622 c 0,0 0,6.2501 5,6.2501 4.999999,0 4.999999,-6.2501 4.999999,-6.2501 l 1.250002,0 c 0,0 0,7.5 -6.250001,7.5 -6.25,0 -6.25,-7.5 -6.25,-7.5 z"
       id="path4686"
       inkscape:connector-curvature="0"
       sodipodi:nodetypes="czccccc" />
    <path
       inkscape:export-ydpi="112.50001"
       inkscape:export-xdpi="112.50001"
       inkscape:export-filename="C:\Users\Hanne Nobis\Dropbox\icons\icon-speech-40.png"
       style="fill:#ffffff;fill-opacity:1;stroke:none"
       d="m 18.749999,1033.6123 0,8.7499 2.499999,0 0,-8.7499 z"
       id="path4688"
       inkscape:connector-curvature="0"
       sodipodi:nodetypes="ccccc" />
    <path
       inkscape:export-ydpi="112.50001"
       inkscape:export-xdpi="112.50001"
       inkscape:export-filename="C:\Users\Hanne Nobis\Dropbox\icons\icon-speech-40.png"
       style="fill:#ffffff;fill-opacity:1;stroke:none"
       d="m 14.999999,1042.3622 9.999999,0 0,1.2501 -9.999999,0 z"
       id="path4690"
       inkscape:connector-curvature="0" />
  </g>
</svg>
