<?xml version="1.0" encoding="UTF-8" standalone="no"?>
<!-- Created with Inkscape (http://www.inkscape.org/) -->

<svg
   xmlns:dc="http://purl.org/dc/elements/1.1/"
   xmlns:cc="http://creativecommons.org/ns#"
   xmlns:rdf="http://www.w3.org/1999/02/22-rdf-syntax-ns#"
   xmlns:svg="http://www.w3.org/2000/svg"
   xmlns="http://www.w3.org/2000/svg"
   xmlns:sodipodi="http://sodipodi.sourceforge.net/DTD/sodipodi-0.dtd"
   xmlns:inkscape="http://www.inkscape.org/namespaces/inkscape"
   width="1000"
   height="1000"
   id="svg3351"
   version="1.1"
   inkscape:version="0.48.2 r9819"
   sodipodi:docname="motion-icon.svg">
  <defs
     id="defs3353" />
  <sodipodi:namedview
     id="base"
     pagecolor="#ffffff"
     bordercolor="#666666"
     borderopacity="1.0"
     inkscape:pageopacity="0.0"
     inkscape:pageshadow="2"
     inkscape:zoom="0.49497475"
     inkscape:cx="536.60675"
     inkscape:cy="672.52101"
     inkscape:document-units="px"
     inkscape:current-layer="layer1"
     showgrid="true"
     inkscape:window-width="505"
     inkscape:window-height="487"
     inkscape:window-x="2497"
     inkscape:window-y="167"
     inkscape:window-maximized="0">
    <inkscape:grid
       type="xygrid"
       id="grid3386"
       empspacing="5"
       visible="true"
       enabled="true"
       snapvisiblegridlinesonly="true" />
  </sodipodi:namedview>
  <metadata
     id="metadata3356">
    <rdf:RDF>
      <cc:Work
         rdf:about="">
        <dc:format>image/svg+xml</dc:format>
        <dc:type
           rdf:resource="http://purl.org/dc/dcmitype/StillImage" />
        <dc:title></dc:title>
      </cc:Work>
    </rdf:RDF>
  </metadata>
  <g
     inkscape:label="Ebene 1"
     inkscape:groupmode="layer"
     id="layer1"
     transform="translate(0,-52.36218)">
    <path
       inkscape:export-ydpi="112.5"
       inkscape:export-xdpi="112.5"
       inkscape:export-filename="C:\Users\hnobis\Dropbox\Studienarbeit\Layout\icon-light-40.png"
       transform="matrix(37.037037,0,0,37.037037,-296.2963,-355.04523)"
       d="m 35,24.5 a 13.5,13.5 0 1 1 -27,0 13.5,13.5 0 1 1 27,0 z"
       sodipodi:ry="13.5"
       sodipodi:rx="13.5"
       sodipodi:cy="24.5"
       sodipodi:cx="21.5"
       id="path3825"
       style="fill:#a00000;fill-opacity:1;fill-rule:evenodd;stroke:none"
       sodipodi:type="arc" />
    <path
       sodipodi:type="arc"
       style="fill:#ffffff;fill-opacity:1;stroke:none"
       id="path5404"
       sodipodi:cx="13.5"
       sodipodi:cy="9.5"
       sodipodi:rx="2.5"
       sodipodi:ry="2.5"
       d="m 16,9.5 a 2.5,2.5 0 1 1 -5,0 2.5,2.5 0 1 1 5,0 z"
       transform="matrix(37.500003,0,0,37.500003,-6.2500275,-53.888951)" />
    <path
       transform="matrix(37.500003,0,0,37.500003,-6.2500275,102.36106)"
       d="m 16,9.5 a 2.5,2.5 0 1 1 -5,0 2.5,2.5 0 1 1 5,0 z"
       sodipodi:ry="2.5"
       sodipodi:rx="2.5"
       sodipodi:cy="9.5"
       sodipodi:cx="13.5"
       id="path5406"
       style="fill:#ffffff;fill-opacity:1;stroke:none"
       sodipodi:type="arc" />
    <path
       style="fill:#ffffff;fill-opacity:1;stroke:none"
       d="m 593.75002,302.36107 0,156.25001 -187.50003,0 0,-156.25001 z"
       id="path5408"
       inkscape:connector-curvature="0" />
    <path
       style="fill:#ffffff;fill-opacity:1;stroke:none"
       d="m 374.99999,427.36108 c 0,0 0,156.25002 125.00001,156.25002 125.00001,0 125.00001,-156.25002 125.00001,-156.25002 l 31.25001,0 c 0,0 0,187.50002 -156.25002,187.50002 -156.25001,0 -156.25001,-187.50002 -156.25001,-187.50002 z"
       id="path5430"
       inkscape:connector-curvature="0"
       sodipodi:nodetypes="czccccc" />
    <path
       style="fill:#ffffff;fill-opacity:1;stroke:none"
       d="m 468.75,583.6111 0,218.75002 62.50001,0 0,-218.75002 z"
       id="path5432"
       inkscape:connector-curvature="0"
       sodipodi:nodetypes="ccccc" />
    <path
       style="fill:#ffffff;fill-opacity:1;stroke:none"
       d="m 374.99999,802.36112 250.00002,0 0,31.25 -250.00002,0 z"
       id="path5434"
       inkscape:connector-curvature="0" />
  </g>
</svg>
