<?xml version="1.0" encoding="UTF-8" standalone="no"?>
<!-- Created with Inkscape (http://www.inkscape.org/) -->

<svg
   xmlns:dc="http://purl.org/dc/elements/1.1/"
   xmlns:cc="http://creativecommons.org/ns#"
   xmlns:rdf="http://www.w3.org/1999/02/22-rdf-syntax-ns#"
   xmlns:svg="http://www.w3.org/2000/svg"
   xmlns="http://www.w3.org/2000/svg"
   xmlns:sodipodi="http://sodipodi.sourceforge.net/DTD/sodipodi-0.dtd"
   xmlns:inkscape="http://www.inkscape.org/namespaces/inkscape"
   width="1000"
   height="1000"
   id="svg3369"
   version="1.1"
   inkscape:version="0.48.2 r9819"
   sodipodi:docname="start-party-icon.svg">
  <defs
     id="defs3371" />
  <sodipodi:namedview
     id="base"
     pagecolor="#ffffff"
     bordercolor="#666666"
     borderopacity="1.0"
     inkscape:pageopacity="0.0"
     inkscape:pageshadow="2"
     inkscape:zoom="0.24748737"
     inkscape:cx="-565.22748"
     inkscape:cy="520"
     inkscape:document-units="px"
     inkscape:current-layer="layer1"
     showgrid="true"
     inkscape:window-width="1920"
     inkscape:window-height="1018"
     inkscape:window-x="1592"
     inkscape:window-y="-8"
     inkscape:window-maximized="1">
    <inkscape:grid
       type="xygrid"
       id="grid4699"
       empspacing="5"
       visible="true"
       enabled="true"
       snapvisiblegridlinesonly="true" />
  </sodipodi:namedview>
  <metadata
     id="metadata3374">
    <rdf:RDF>
      <cc:Work
         rdf:about="">
        <dc:format>image/svg+xml</dc:format>
        <dc:type
           rdf:resource="http://purl.org/dc/dcmitype/StillImage" />
        <dc:title />
      </cc:Work>
    </rdf:RDF>
  </metadata>
  <g
     inkscape:label="Ebene 1"
     inkscape:groupmode="layer"
     id="layer1"
     transform="translate(0,-52.3622)">
    <path
       inkscape:export-ydpi="111.44297"
       inkscape:export-xdpi="111.44297"
       inkscape:export-filename="C:\Users\Hanne Nobis\Dropbox\icons\icon-party-dark-40.png"
       sodipodi:type="arc"
       style="fill:#800000;fill-opacity:1;fill-rule:evenodd;stroke:none"
       id="path3353"
       sodipodi:cx="21.5"
       sodipodi:cy="24.5"
       sodipodi:rx="13.5"
       sodipodi:ry="13.5"
       d="M 35,24.5 C 35,31.955844 28.955844,38 21.5,38 14.044156,38 8,31.955844 8,24.5 8,17.044156 14.044156,11 21.5,11 28.955844,11 35,17.044156 35,24.5 z"
       transform="matrix(37.037037,0,0,37.037037,-296.2963,-355.04521)" />
    <g
       inkscape:export-ydpi="90"
       inkscape:export-xdpi="90"
       inkscape:export-filename="C:\Users\Hanne Nobis\Dropbox\icons\icon-party-32.png"
       id="g3355"
       transform="matrix(3.0623896,0,0,3.0623896,90.000595,-7749.7958)"
       style="fill:#ffffff;fill-opacity:1">
      <path
         style="fill:#ffffff;fill-opacity:1;stroke:none"
         d="m 37.999427,2684.3622 c -3.48029,0 80.672543,52.7388 81.281223,54 0.60868,1.2611 0.88171,70.9271 0,71.9999 -0.88171,1.0728 -52.042942,18.0995 -45.281235,18 l 107.999965,0 c 7.15945,-0.099 -44.4869,-16.9653 -45.28124,-18 -0.79434,-1.0346 -0.7518,-71.1281 0,-71.9999 0.75181,-0.8719 84.94018,-54 81.28123,-54 -91.2656,1.2656 -91.30226,1.1933 -179.999943,0 z m 29.671865,9 c 0.140625,-0.7384 120.515558,-1.1251 120.656208,0 0.14065,1.1251 -58.72822,40.3593 -60.3281,40.3593 -1.59989,0 -60.468733,-39.621 -60.328108,-40.3593 z"
         id="path3357"
         inkscape:connector-curvature="0"
         sodipodi:nodetypes="czzcczzcczzzz" />
      <path
         style="fill:#ffffff;fill-opacity:1;stroke:none"
         d="m 98.5,1808 c -6.767884,0.074 -13.902866,1.1616 -21.125,3.25 -5.708836,1.6507 -11.213892,3.8548 -16.40625,6.5 l -0.0625,-0.1562 -2.5,-4.3126 -8.65625,5 2.5,4.3126 0.0625,0.125 C 30.408054,1836.936 15.859609,1859.1402 17.125,1879.75 L 68.21875,1850.2812 87.125,1883 98.65625,1883 76.875,1845.2812 128,1815.8125 c -7.96715,-5.2927 -18.22019,-7.9363 -29.5,-7.8125 z"
         transform="translate(0,796.36218)"
         id="path3359"
         inkscape:connector-curvature="0" />
      <path
         style="font-size:medium;font-style:normal;font-variant:normal;font-weight:normal;font-stretch:normal;text-indent:0;text-align:start;text-decoration:none;line-height:normal;letter-spacing:normal;word-spacing:normal;text-transform:none;direction:ltr;block-progression:tb;writing-mode:lr-tb;text-anchor:start;baseline-shift:baseline;color:#000000;fill:#ffffff;fill-opacity:1;stroke:none;stroke-width:10;marker:none;visibility:visible;display:inline;overflow:visible;enable-background:accumulate;font-family:Sans;-inkscape-font-specification:Sans"
         d="m 184.9375,1840 a 5.0005,5.0005 0 0 0 -3.84375,2.5 l -23.375,40.5 11.53125,0 18.71875,-32.4062 46.03125,9.4374 a 5.0070748,5.0070748 0 1 0 2,-9.8124 l -49.5625,-10.125 a 5.0005,5.0005 0 0 0 -1.5,-0.094 z"
         transform="translate(0,796.36218)"
         id="path3361"
         inkscape:connector-curvature="0" />
    </g>
    <path
       inkscape:export-ydpi="140.625"
       inkscape:export-xdpi="140.625"
       inkscape:export-filename="C:\Users\Hanne Nobis\Dropbox\icons\icon-startscene-active-50.png"
       transform="matrix(28.775934,0,0,27.339135,440,527.54482)"
       d="m 11,1.5 a 8.5,8.5 0 1 1 -17,0 8.5,8.5 0 1 1 17,0 z"
       sodipodi:ry="8.5"
       sodipodi:rx="8.5"
       sodipodi:cy="1.5"
       sodipodi:cx="2.5"
       id="path4644"
       style="fill:#ffffff;fill-opacity:1;stroke:#800000;stroke-width:0.5;stroke-miterlimit:4;stroke-opacity:1;stroke-dasharray:none"
       sodipodi:type="arc" />
    <path
       style="fill:#800000;fill-opacity:1;stroke:none"
       d="m 440,452.3622 0,239.21743 201.43149,-119.60871 z"
       id="path4139"
       inkscape:connector-curvature="0"
       inkscape:export-filename="C:\Users\Hanne Nobis\Dropbox\icons\icon-startscene-active-50.png"
       inkscape:export-xdpi="140.625"
       inkscape:export-ydpi="140.625" />
  </g>
</svg>
