<?xml version="1.0" encoding="UTF-8" standalone="no"?>
<!-- Created with Inkscape (http://www.inkscape.org/) -->

<svg
   xmlns:dc="http://purl.org/dc/elements/1.1/"
   xmlns:cc="http://creativecommons.org/ns#"
   xmlns:rdf="http://www.w3.org/1999/02/22-rdf-syntax-ns#"
   xmlns:svg="http://www.w3.org/2000/svg"
   xmlns="http://www.w3.org/2000/svg"
   xmlns:sodipodi="http://sodipodi.sourceforge.net/DTD/sodipodi-0.dtd"
   xmlns:inkscape="http://www.inkscape.org/namespaces/inkscape"
   version="1.1"
   width="1000"
   height="1000"
   id="svg3351"
   inkscape:version="0.48.2 r9819"
   sodipodi:docname="transparent-light-icon.svg">
  <sodipodi:namedview
     pagecolor="#ffffff"
     bordercolor="#666666"
     borderopacity="1"
     objecttolerance="10"
     gridtolerance="10"
     guidetolerance="10"
     inkscape:pageopacity="0"
     inkscape:pageshadow="2"
     inkscape:window-width="1920"
     inkscape:window-height="1018"
     id="namedview10"
     showgrid="false"
     inkscape:zoom="0.472"
     inkscape:cx="-311.44068"
     inkscape:cy="500"
     inkscape:window-x="1592"
     inkscape:window-y="-8"
     inkscape:window-maximized="1"
     inkscape:current-layer="layer1" />
  <defs
     id="defs3353" />
  <metadata
     id="metadata3356">
    <rdf:RDF>
      <cc:Work
         rdf:about="">
        <dc:format>image/svg+xml</dc:format>
        <dc:type
           rdf:resource="http://purl.org/dc/dcmitype/StillImage" />
        <dc:title />
      </cc:Work>
    </rdf:RDF>
  </metadata>
  <g
     transform="translate(0,-52.36218)"
     id="layer1">
    <path
       style="fill:#a00000;fill-opacity:1;fill-rule:evenodd;stroke:#a00000;stroke-opacity:1;stroke-width:2;stroke-miterlimit:4;stroke-dasharray:none"
       d="M 514.59375 0.21875 A 500 500 0 0 0 0 500 A 500 500 0 0 0 1000 500 A 500 500 0 0 0 514.59375 0.21875 z M 507.59375 131.875 A 260.29879 260.29879 0 0 1 760.3125 392.0625 A 260.3125 260.3125 0 0 1 239.6875 392.0625 A 260.29879 260.29879 0 0 1 507.59375 131.875 z M 360.09375 630.5625 C 401.14873 654.69711 448.93296 668.59375 500 668.59375 C 551.06705 668.59375 598.85127 654.69711 639.90625 630.5625 L 639.90625 720.46875 C 639.90625 797.97922 577.51048 860.375 500 860.375 C 422.48953 860.375 360.09375 797.97922 360.09375 720.46875 L 360.09375 630.5625 z "
       transform="translate(0,52.36218)"
       id="path2995" />
  </g>
</svg>
