<?xml version="1.0" encoding="UTF-8" standalone="no"?>
<!-- Created with Inkscape (http://www.inkscape.org/) -->

<svg
   xmlns:dc="http://purl.org/dc/elements/1.1/"
   xmlns:cc="http://creativecommons.org/ns#"
   xmlns:rdf="http://www.w3.org/1999/02/22-rdf-syntax-ns#"
   xmlns:svg="http://www.w3.org/2000/svg"
   xmlns="http://www.w3.org/2000/svg"
   xmlns:sodipodi="http://sodipodi.sourceforge.net/DTD/sodipodi-0.dtd"
   xmlns:inkscape="http://www.inkscape.org/namespaces/inkscape"
   width="1000"
   height="1000"
   id="svg3351"
   version="1.1"
   inkscape:version="0.48.2 r9819"
   sodipodi:docname="group-icon.svg">
  <defs
     id="defs3353" />
  <sodipodi:namedview
     id="base"
     pagecolor="#ffffff"
     bordercolor="#666666"
     borderopacity="1.0"
     inkscape:pageopacity="0.0"
     inkscape:pageshadow="2"
     inkscape:zoom="0.49497475"
     inkscape:cx="144.6708"
     inkscape:cy="446.82116"
     inkscape:document-units="px"
     inkscape:current-layer="layer1"
     showgrid="true"
     inkscape:window-width="1920"
     inkscape:window-height="1018"
     inkscape:window-x="1592"
     inkscape:window-y="-8"
     inkscape:window-maximized="1"
     showguides="true"
     inkscape:guide-bbox="true">
    <inkscape:grid
       type="xygrid"
       id="grid3386"
       empspacing="5"
       visible="true"
       enabled="true"
       snapvisiblegridlinesonly="true" />
  </sodipodi:namedview>
  <metadata
     id="metadata3356">
    <rdf:RDF>
      <cc:Work
         rdf:about="">
        <dc:format>image/svg+xml</dc:format>
        <dc:type
           rdf:resource="http://purl.org/dc/dcmitype/StillImage" />
        <dc:title></dc:title>
      </cc:Work>
    </rdf:RDF>
  </metadata>
  <g
     inkscape:label="Ebene 1"
     inkscape:groupmode="layer"
     id="layer1"
     transform="translate(0,-52.36218)">
    <flowRoot
       xml:space="preserve"
       id="flowRoot3881"
       style="fill:black;stroke:none;stroke-opacity:1;stroke-width:1px;stroke-linejoin:miter;stroke-linecap:butt;fill-opacity:1;font-family:Sans;font-style:normal;font-weight:normal;font-size:40px;line-height:125%;letter-spacing:0px;word-spacing:0px"><flowRegion
         id="flowRegion3883"><rect
           id="rect3885"
           width="722.85712"
           height="257.14285"
           x="522.85712"
           y="682.85712" /></flowRegion><flowPara
         id="flowPara3887" /></flowRoot>    <path
       style="fill:#a00000;fill-opacity:1;fill-rule:evenodd;stroke:#a00000;stroke-opacity:1;stroke-width:2;stroke-miterlimit:4;stroke-dasharray:none"
       d="M 500 0 C 223.85763 6.5743707e-014 -9.2518585e-017 223.85763 0 500 C 0 776.14237 223.85763 1000 500 1000 C 776.14237 1000 1000 776.14237 1000 500 C 1000 223.85763 776.14237 -1.3167245e-013 500 0 z M 500.03125 175 C 581.64397 175 647.78125 241.16853 647.78125 322.78125 C 647.78125 332.74902 646.78768 342.5231 644.90625 351.9375 C 594.9588 369.53291 556.59569 411.6072 544.28125 463.8125 C 530.31447 468.1887 515.44125 470.5625 500.03125 470.5625 C 484.62125 470.5625 469.74803 468.1887 455.78125 463.8125 C 443.46681 411.6072 405.07245 369.53291 355.125 351.9375 C 353.24357 342.5231 352.25 332.74902 352.25 322.78125 C 352.25 241.16853 418.41853 175 500.03125 175 z M 303 352.25 C 384.61271 352.25 450.75 418.41854 450.75 500.03125 C 450.75 581.64396 384.61271 647.8125 303 647.8125 C 221.38729 647.8125 155.21875 581.64396 155.21875 500.03125 C 155.21875 418.41854 221.38729 352.25 303 352.25 z M 697.0625 352.25 C 778.67521 352.25 844.8125 418.41854 844.8125 500.03125 C 844.8125 581.64396 778.67521 647.8125 697.0625 647.8125 C 615.44979 647.8125 549.28125 581.64396 549.28125 500.03125 C 549.28125 418.41854 615.44979 352.25 697.0625 352.25 z M 457.78125 474.03125 C 471.22378 477.79826 485.39779 479.78125 500.03125 479.78125 C 514.66471 479.78125 528.80747 477.79826 542.25 474.03125 C 540.83769 482.49686 540.03125 491.1335 540.03125 500 C 540.03125 523.85294 545.35827 546.53439 554.875 566.78125 C 540.63265 580.31133 521.32071 588.59375 500.03125 588.59375 C 478.74179 588.59375 459.42986 580.31133 445.1875 566.78125 C 454.70423 546.53439 460 523.85294 460 500 C 460 491.1335 459.19356 482.49686 457.78125 474.03125 z M 223.5625 635.4375 C 246.86961 649.13883 274.00899 657.03125 303 657.03125 C 331.99101 657.03125 359.09914 649.13883 382.40625 635.4375 L 382.40625 686.46875 C 382.40625 730.47183 347.00307 765.875 303 765.875 C 258.99693 765.875 223.5625 730.47183 223.5625 686.46875 L 223.5625 635.4375 z M 617.625 635.4375 C 640.93211 649.13883 668.07149 657.03125 697.0625 657.03125 C 726.05351 657.03125 753.16164 649.13883 776.46875 635.4375 L 776.46875 686.46875 C 776.46875 730.47183 741.06557 765.875 697.0625 765.875 C 653.05943 765.875 617.625 730.47183 617.625 686.46875 L 617.625 635.4375 z "
       transform="translate(0,52.36218)"
       id="path3789-1" />
  </g>
</svg>
