<?xml version="1.0" encoding="UTF-8" standalone="no"?>
<!-- Created with Inkscape (http://www.inkscape.org/) -->

<svg
   xmlns:dc="http://purl.org/dc/elements/1.1/"
   xmlns:cc="http://creativecommons.org/ns#"
   xmlns:rdf="http://www.w3.org/1999/02/22-rdf-syntax-ns#"
   xmlns:svg="http://www.w3.org/2000/svg"
   xmlns="http://www.w3.org/2000/svg"
   xmlns:sodipodi="http://sodipodi.sourceforge.net/DTD/sodipodi-0.dtd"
   xmlns:inkscape="http://www.inkscape.org/namespaces/inkscape"
   width="40"
   height="40"
   id="svg5662"
   version="1.1"
   inkscape:version="0.48.2 r9819"
   sodipodi:docname="testmode-icon.svg">
  <defs
     id="defs5664" />
  <sodipodi:namedview
     id="base"
     pagecolor="#ffffff"
     bordercolor="#666666"
     borderopacity="1.0"
     inkscape:pageopacity="0.0"
     inkscape:pageshadow="2"
     inkscape:zoom="3.959798"
     inkscape:cx="79.829346"
     inkscape:cy="51.022469"
     inkscape:document-units="px"
     inkscape:current-layer="layer1"
     showgrid="false"
     inkscape:window-width="1600"
     inkscape:window-height="838"
     inkscape:window-x="-8"
     inkscape:window-y="-8"
     inkscape:window-maximized="1" />
  <metadata
     id="metadata5667">
    <rdf:RDF>
      <cc:Work
         rdf:about="">
        <dc:format>image/svg+xml</dc:format>
        <dc:type
           rdf:resource="http://purl.org/dc/dcmitype/StillImage" />
        <dc:title></dc:title>
      </cc:Work>
    </rdf:RDF>
  </metadata>
  <g
     inkscape:label="Ebene 1"
     inkscape:groupmode="layer"
     id="layer1"
     transform="translate(0,-1012.3622)">
    <path
       sodipodi:type="arc"
       style="fill:#a00000;fill-opacity:1;fill-rule:evenodd;stroke:none"
       id="path5541"
       sodipodi:cx="21.5"
       sodipodi:cy="24.5"
       sodipodi:rx="13.5"
       sodipodi:ry="13.5"
       d="m 35,24.5 a 13.5,13.5 0 1 1 -27,0 13.5,13.5 0 1 1 27,0 z"
       transform="matrix(1.4814815,0,0,1.4814815,-11.851852,996.0659)"
       inkscape:export-filename="C:\Users\hnobis\Dropbox\Studienarbeit\Layout\icon-light-40.png"
       inkscape:export-xdpi="112.5"
       inkscape:export-ydpi="112.5" />
    <path
       sodipodi:type="arc"
       style="fill:#ffffff;fill-opacity:1;stroke:none"
       id="path5543"
       sodipodi:cx="10"
       sodipodi:cy="12"
       sodipodi:rx="2"
       sodipodi:ry="2"
       d="m 12,12 a 2,2 0 1 1 -4,0 2,2 0 1 1 4,0 z"
       transform="matrix(1.5625001,0,0,0.93750007,-3.8778139,1014.4582)" />
    <path
       sodipodi:type="arc"
       style="fill:#ffffff;fill-opacity:1;stroke:none"
       id="path5547"
       sodipodi:cx="14.5"
       sodipodi:cy="19.5"
       sodipodi:rx="2.5"
       sodipodi:ry="2.5"
       d="m 17,19.5 a 2.5,2.5 0 1 1 -5,0 2.5,2.5 0 1 1 5,0 z"
       transform="matrix(1.2500001,0,0,1.2500001,1.8750015,1016.7372)" />
    <path
       style="fill:#ffffff;fill-opacity:1;stroke:none"
       d="m 19.337088,1017.3622 -2.500001,5 5.000001,0 z"
       id="path5549"
       inkscape:connector-curvature="0"
       sodipodi:nodetypes="cccc" />
    <path
       style="fill:#ffffff;fill-opacity:1;stroke:none"
       d="m 26.104854,1022.4727 0,5 3.750001,0 0,-5 z"
       id="path5551"
       inkscape:connector-curvature="0"
       sodipodi:nodetypes="ccccc"
       inkscape:transform-center-x="0.62500001"
       inkscape:transform-center-y="2.5000106" />
    <path
       style="fill:#ffffff;fill-opacity:1;stroke:none"
       d="m 18.75,1022.3622 0,13.75 c 0,0 -3.75,-3.75 -5,-5 -1.25,-1.25 -1.25,-3.75 -1.25,-3.75 l -1.25,0 c 0,0 0,2.5 1.25,3.75 1.976423,1.9764 6.25,6.25 6.25,6.25 l 0,1.25 1.25,0 0,-5 c 5.471659,-1.1389 7.039398,-1.1906 8.750001,-6.25 l -1.25,0 c 0,0 0,2.5 -2.500001,3.75 -2.5,1.25 -5,1.25 -5,1.25 l 0,-10 z"
       id="path5553"
       inkscape:connector-curvature="0"
       sodipodi:nodetypes="cczccscccccczccc" />
    <path
       inkscape:export-ydpi="112.5"
       inkscape:export-xdpi="112.5"
       inkscape:export-filename="C:\Users\hnobis\Dropbox\Studienarbeit\Layout\icon-light-40.png"
       transform="matrix(1.4814815,0,0,1.4814815,-11.851852,996.0659)"
       d="m 35,24.5 a 13.5,13.5 0 1 1 -27,0 13.5,13.5 0 1 1 27,0 z"
       sodipodi:ry="13.5"
       sodipodi:rx="13.5"
       sodipodi:cy="24.5"
       sodipodi:cx="21.5"
       id="path4455"
       style="fill:#a00000;fill-opacity:1;fill-rule:evenodd;stroke:none"
       sodipodi:type="arc" />
    <path
       transform="matrix(1.5625001,0,0,0.93750007,-3.8778139,1014.4582)"
       d="m 12,12 a 2,2 0 1 1 -4,0 2,2 0 1 1 4,0 z"
       sodipodi:ry="2"
       sodipodi:rx="2"
       sodipodi:cy="12"
       sodipodi:cx="10"
       id="path4457"
       style="fill:#ffffff;fill-opacity:1;stroke:none"
       sodipodi:type="arc" />
    <path
       transform="matrix(1.2500001,0,0,1.2500001,1.8750015,1016.7372)"
       d="m 17,19.5 a 2.5,2.5 0 1 1 -5,0 2.5,2.5 0 1 1 5,0 z"
       sodipodi:ry="2.5"
       sodipodi:rx="2.5"
       sodipodi:cy="19.5"
       sodipodi:cx="14.5"
       id="path4459"
       style="fill:#ffffff;fill-opacity:1;stroke:none"
       sodipodi:type="arc" />
    <path
       sodipodi:nodetypes="cccc"
       inkscape:connector-curvature="0"
       id="path4461"
       d="m 19.337088,1017.3622 -2.500001,5 5.000001,0 z"
       style="fill:#ffffff;fill-opacity:1;stroke:none" />
    <path
       inkscape:transform-center-y="2.5000106"
       inkscape:transform-center-x="0.62500001"
       sodipodi:nodetypes="ccccc"
       inkscape:connector-curvature="0"
       id="path4463"
       d="m 26.104854,1022.4727 0,5 3.750001,0 0,-5 z"
       style="fill:#ffffff;fill-opacity:1;stroke:none" />
    <path
       sodipodi:nodetypes="cczccscccccczccc"
       inkscape:connector-curvature="0"
       id="path4466"
       d="m 18.75,1022.3622 0,13.75 c 0,0 -3.75,-3.75 -5,-5 -1.25,-1.25 -1.25,-3.75 -1.25,-3.75 l -1.25,0 c 0,0 0,2.5 1.25,3.75 1.976423,1.9764 6.25,6.25 6.25,6.25 l 0,1.25 1.25,0 0,-5 c 5.471659,-1.1389 7.039398,-1.1906 8.750001,-6.25 l -1.25,0 c 0,0 0,2.5 -2.500001,3.75 -2.5,1.25 -5,1.25 -5,1.25 l 0,-10 z"
       style="fill:#ffffff;fill-opacity:1;stroke:none" />
  </g>
</svg>
